<svg width="12" height="12" viewBox="0 0 12 12" fill="none" xmlns="http://www.w3.org/2000/svg">
<g clip-path="url(#clip0_784_393)">
<path d="M1 3V9C1 10.1046 1.89543 11 3 11H9C10.1046 11 11 10.1046 11 9V3" stroke="#3399FF" stroke-linecap="round"/>
<rect x="6" y="8" width="1.5" height="1.5" rx="0.75" fill="#CCCCCC"/>
<rect x="8" y="8" width="1.5" height="1.5" rx="0.75" fill="#CCCCCC"/>
<path d="M6.5 1C6.5 0.723858 6.27614 0.5 6 0.5C5.72386 0.5 5.5 0.723858 5.5 1H6H6.5ZM5.64645 7.35355C5.84171 7.54882 6.15829 7.54882 6.35355 7.35355L9.53553 4.17157C9.7308 3.97631 9.7308 3.65973 9.53553 3.46447C9.34027 3.2692 9.02369 3.2692 8.82843 3.46447L6 6.29289L3.17157 3.46447C2.97631 3.2692 2.65973 3.2692 2.46447 3.46447C2.2692 3.65973 2.2692 3.97631 2.46447 4.17157L5.64645 7.35355ZM6 1H5.5V7H6H6.5V1H6Z" fill="#3399FF"/>
</g>
<defs>
<clipPath id="clip0_784_393">
<rect width="12" height="12" fill="white"/>
</clipPath>
</defs>
</svg>
