<svg width="120" height="120" viewBox="0 0 120 120" fill="none" xmlns="http://www.w3.org/2000/svg">
<path d="M54.2982 13.1233C54.7085 11.2976 56.3296 10.0003 58.2009 10.0003H61.7991C63.6704 10.0003 65.2915 11.2976 65.7018 13.1233L85 99L93.5489 99.8549C94.4136 99.9414 95.1235 100.576 95.3055 101.426L97.5215 111.767C97.7749 112.95 96.9289 114.085 95.7233 114.18L62.9904 116.764C60.9999 116.921 59.0001 116.921 57.0096 116.764L24.2767 114.18C23.0711 114.085 22.2251 112.95 22.4785 111.767L24.6945 101.426C24.8765 100.576 25.5864 99.9414 26.4511 99.8549L35 99L54.2982 13.1233Z" fill="url(#paint0_linear_671_1489)"/>
<path d="M54.2982 13.1233C54.7085 11.2976 56.3296 10.0003 58.2009 10.0003H61.7991C63.6704 10.0003 65.2915 11.2976 65.7018 13.1233L83.6878 93.1609C84.4501 96.553 82.7043 100.01 79.5221 101.41C67.0828 106.884 52.9172 106.884 40.4779 101.41C37.2957 100.01 35.5499 96.553 36.3122 93.1609L54.2982 13.1233Z" fill="url(#paint1_linear_671_1489)"/>
<path d="M79.6318 75.1146C79.4853 75.1352 79.3374 75.153 79.1875 75.1634C73.8612 75.5317 65.9265 76.0003 60 76.0003C54.0735 76.0003 46.1388 75.5317 40.8125 75.1634C40.6626 75.153 40.5147 75.1352 40.3682 75.1146L43.1807 62.5931C48.313 62.9246 54.9 63.2728 60 63.2728C65.0996 63.2728 71.6862 62.9245 76.8184 62.5931L79.6318 75.1146ZM74.3447 51.5853C69.6852 51.8028 64.3113 51.9993 60 51.9993C55.6884 51.9993 50.3141 51.8028 45.6543 51.5853L47.8789 41.6868C51.9639 41.8607 56.3606 41.9993 60 41.9993C63.6391 41.9993 68.0354 41.8607 72.1201 41.6868L74.3447 51.5853Z" fill="url(#paint2_linear_671_1489)"/>
<defs>
<linearGradient id="paint0_linear_671_1489" x1="60" y1="10.0003" x2="60" y2="114" gradientUnits="userSpaceOnUse">
<stop stop-color="#B87414"/>
<stop offset="1" stop-color="#73480D"/>
</linearGradient>
<linearGradient id="paint1_linear_671_1489" x1="60" y1="10.0003" x2="60" y2="110" gradientUnits="userSpaceOnUse">
<stop stop-color="#B87414"/>
<stop offset="1" stop-color="#73480D"/>
</linearGradient>
<linearGradient id="paint2_linear_671_1489" x1="60" y1="41.6868" x2="60" y2="76.0003" gradientUnits="userSpaceOnUse">
<stop stop-color="#D9D9D9"/>
<stop offset="1" stop-color="#A6A6A6"/>
</linearGradient>
</defs>
</svg>
