<svg width="120" height="120" viewBox="0 0 120 120" fill="none" xmlns="http://www.w3.org/2000/svg">
<path d="M69.7684 110.165L101.196 97.9049C102.746 97.3004 102.923 95.1789 101.496 94.3252L62.5 71L23.5039 94.3252C22.0766 95.1789 22.2543 97.3004 23.8037 97.9049L55.2316 110.165C59.9057 111.988 65.0943 111.988 69.7684 110.165Z" fill="url(#paint0_linear_671_1489)"/>
<path d="M57.2924 9.11351C57.7063 7.29236 59.3253 6 61.1929 6H64.8071C66.6747 6 68.2937 7.29236 68.7076 9.11351L88 93.9997C72.1965 101.585 53.8035 101.585 38 93.9997L57.2924 9.11351Z" fill="url(#paint1_linear_671_1489)"/>
<path d="M82.3887 69.3135C82.3763 69.3147 82.364 69.3172 82.3516 69.3184C77.0252 69.8337 68.9877 70.5 63 70.5C57.0123 70.5 48.9748 69.8337 43.6484 69.3184C43.6357 69.3171 43.6231 69.3148 43.6104 69.3135L46.4717 56.7207C51.5601 57.1045 57.9959 57.5 63 57.5C68.0038 57.5 74.439 57.1045 79.5273 56.7207L82.3887 69.3135ZM76.7354 44.4346C72.2217 44.7366 67.1246 45 63 45C58.8751 45 53.7776 44.7366 49.2637 44.4346L51.6602 33.8916C55.5189 34.0885 59.5915 34.2412 63 34.2412C66.4082 34.2412 70.4804 34.0884 74.3389 33.8916L76.7354 44.4346Z" fill="url(#paint2_linear_671_1489)"/>
<defs>
<linearGradient id="paint0_linear_671_1489" x1="62.5" y1="78.7372" x2="62.5" y2="104.158" gradientUnits="userSpaceOnUse">
<stop stop-color="#B87414"/>
<stop offset="1" stop-color="#E5911A"/>
</linearGradient>
<linearGradient id="paint1_linear_671_1489" x1="63" y1="6" x2="63" y2="106" gradientUnits="userSpaceOnUse">
<stop stop-color="#E6911A"/>
<stop offset="1" stop-color="#B87414"/>
</linearGradient>
<linearGradient id="paint2_linear_671_1489" x1="62.9995" y1="58.696" x2="62.9995" y2="72.4992" gradientUnits="userSpaceOnUse">
<stop stop-color="#D9D9D9"/>
<stop offset="1" stop-color="#BFBFBF"/>
</linearGradient>
</defs>
</svg>
