<svg width="120" height="120" viewBox="0 0 120 120" fill="none" xmlns="http://www.w3.org/2000/svg">
<path d="M66.7684 114.165L98.1963 101.905C99.7457 101.301 99.9234 99.1792 98.4961 98.3255L59.5 75.0003L20.5039 98.3255C19.0766 99.1793 19.2543 101.301 20.8037 101.905L52.2316 114.165C56.9057 115.988 62.0943 115.988 66.7684 114.165Z" fill="url(#paint0_linear_671_1489)"/>
<path d="M54.2924 13.1138C54.7063 11.2927 56.3253 10.0003 58.1929 10.0003H61.8071C63.6747 10.0003 65.2937 11.2927 65.7076 13.1138L85 98C69.1965 105.586 50.8035 105.586 35 98L54.2924 13.1138Z" fill="url(#paint1_linear_671_1489)"/>
<path d="M79.2314 73.3304C73.9049 73.844 65.9429 74.5003 60 74.5003C54.0571 74.5003 46.0951 73.844 40.7686 73.3304L43.5996 60.7308C48.6677 61.1115 55.0378 61.5003 60 61.5003C64.9619 61.5003 71.3315 61.1115 76.3994 60.7308L79.2314 73.3304ZM73.6377 48.4417C69.1483 48.741 64.0949 49.0003 60 49.0003C55.9048 49.0003 50.851 48.741 46.3613 48.4417L48.7305 37.8958C52.5683 38.0906 56.6122 38.2415 60 38.2415C63.3875 38.2415 67.431 38.0906 71.2686 37.8958L73.6377 48.4417Z" fill="url(#paint2_linear_671_1489)"/>
<defs>
<linearGradient id="paint0_linear_671_1489" x1="59.5" y1="82.7375" x2="59.5" y2="108.158" gradientUnits="userSpaceOnUse">
<stop stop-color="#73480D"/>
<stop offset="1" stop-color="#B87414"/>
</linearGradient>
<linearGradient id="paint1_linear_671_1489" x1="60" y1="10.0003" x2="60" y2="110" gradientUnits="userSpaceOnUse">
<stop stop-color="#B87414"/>
<stop offset="1" stop-color="#73480D"/>
</linearGradient>
<linearGradient id="paint2_linear_671_1489" x1="60" y1="62.6976" x2="60" y2="76.4993" gradientUnits="userSpaceOnUse">
<stop stop-color="#D9D9D9"/>
<stop offset="1" stop-color="#A6A6A6"/>
</linearGradient>
</defs>
</svg>
