<svg width="120" height="120" viewBox="0 0 120 120" fill="none" xmlns="http://www.w3.org/2000/svg">
<path d="M67.3433 117.101L93.2872 106.86C94.9748 106.194 94.9748 103.806 93.2872 103.14L60 90L26.7128 103.14C25.0252 103.806 25.0252 106.194 26.7128 106.86L52.6567 117.101C57.3751 118.964 62.6249 118.964 67.3433 117.101Z" fill="url(#paint0_linear_671_1489)"/>
<path d="M54.2982 12.1233C54.7085 10.2976 56.3296 9.00031 58.2009 9.00031H61.7991C63.6704 9.00031 65.2915 10.2976 65.7018 12.1233L85 98L93.2239 101.796C95.0214 102.625 94.9486 105.205 93.1071 105.931L67.3433 116.101C62.6249 117.964 57.3751 117.964 52.6567 116.101L26.8929 105.931C25.0514 105.205 24.9786 102.625 26.7761 101.796L35 98L54.2982 12.1233Z" fill="url(#paint1_linear_671_1489)"/>
<path d="M54.2982 13.1233C54.7085 11.2976 56.3296 10.0003 58.2009 10.0003H61.7991C63.6704 10.0003 65.2915 11.2976 65.7018 13.1233L83.6878 93.1609C84.4501 96.553 82.7043 100.01 79.5221 101.41C67.0828 106.884 52.9172 106.884 40.4779 101.41C37.2957 100.01 35.5499 96.553 36.3122 93.1609L54.2982 13.1233Z" fill="url(#paint2_linear_671_1489)"/>
<path d="M79.2314 73.3304C73.9049 73.844 65.9429 74.5003 60 74.5003C54.0571 74.5003 46.0951 73.844 40.7686 73.3304L43.5996 60.7308C48.6677 61.1115 55.0378 61.5003 60 61.5003C64.9619 61.5003 71.3315 61.1115 76.3994 60.7308L79.2314 73.3304ZM73.6377 48.4417C69.1483 48.741 64.0949 49.0003 60 49.0003C55.9048 49.0003 50.851 48.741 46.3613 48.4417L48.7305 37.8958C52.5683 38.0906 56.6122 38.2415 60 38.2415C63.3875 38.2415 67.431 38.0906 71.2686 37.8958L73.6377 48.4417Z" fill="url(#paint3_linear_671_1489)"/>
<defs>
<linearGradient id="paint0_linear_671_1489" x1="60" y1="9.5003" x2="60" y2="120" gradientUnits="userSpaceOnUse">
<stop stop-color="#B87414"/>
<stop offset="1" stop-color="#73480D"/>
</linearGradient>
<linearGradient id="paint1_linear_671_1489" x1="60" y1="9.00031" x2="60" y2="119" gradientUnits="userSpaceOnUse">
<stop stop-color="#B87414"/>
<stop offset="1" stop-color="#73480D"/>
</linearGradient>
<linearGradient id="paint2_linear_671_1489" x1="60" y1="10.0003" x2="60" y2="110" gradientUnits="userSpaceOnUse">
<stop stop-color="#B87414"/>
<stop offset="1" stop-color="#73480D"/>
</linearGradient>
<linearGradient id="paint3_linear_671_1489" x1="60" y1="62.6976" x2="60" y2="76.4993" gradientUnits="userSpaceOnUse">
<stop stop-color="#D9D9D9"/>
<stop offset="1" stop-color="#A6A6A6"/>
</linearGradient>
</defs>
</svg>
