<svg width="12" height="12" viewBox="0 0 12 12" fill="none" xmlns="http://www.w3.org/2000/svg">
<rect x="4" y="7" width="4" height="4" rx="2" fill="#999999"/>
<path d="M1.5 9.99985C1.5 10.276 1.72386 10.4998 2 10.4998C2.27614 10.4998 2.5 10.276 2.5 9.99985H2H1.5ZM11.3536 5.35355C11.5488 5.15829 11.5488 4.84171 11.3536 4.64645L8.17157 1.46447C7.97631 1.2692 7.65973 1.2692 7.46447 1.46447C7.2692 1.65973 7.2692 1.97631 7.46447 2.17157L10.2929 5L7.46447 7.82843C7.2692 8.02369 7.2692 8.34027 7.46447 8.53553C7.65973 8.7308 7.97631 8.7308 8.17157 8.53553L11.3536 5.35355ZM2 9.99985C2.5 9.99985 2.5 10 2.5 10.0002C2.5 10.0002 2.5 10.0003 2.5 10.0004C2.5 10.0005 2.5 10.0005 2.5 10.0005C2.5 10.0004 2.5 10.0001 2.50001 9.9994C2.50001 9.99807 2.50003 9.99558 2.50008 9.99196C2.50017 9.98471 2.50037 9.97297 2.5008 9.95703C2.50165 9.92513 2.5034 9.87649 2.507 9.81354C2.5142 9.68747 2.52876 9.50484 2.55811 9.28471C2.61716 8.84184 2.7344 8.2602 2.96424 7.68562C3.19451 7.10997 3.52844 6.56462 4.00759 6.16534C4.47788 5.77345 5.11386 5.5 6 5.5V5V4.5C4.88614 4.5 4.02212 4.85154 3.36741 5.39711C2.72156 5.93531 2.30549 6.63992 2.03576 7.31422C1.7656 7.98961 1.63284 8.65793 1.56689 9.15254C1.53374 9.40114 1.51705 9.60912 1.50863 9.75648C1.50441 9.83024 1.50226 9.88903 1.50115 9.93037C1.5006 9.95104 1.50031 9.96738 1.50016 9.97905C1.50009 9.98489 1.50005 9.98957 1.50003 9.99305C1.50001 9.99479 1.50001 9.99623 1.5 9.99736C1.5 9.99793 1.5 9.99842 1.5 9.99883C1.5 9.99904 1.5 9.9993 1.5 9.9994C1.5 9.99963 1.5 9.99985 2 9.99985ZM6 5V5.5C6.00781 5.5 6.01561 5.5 6.0234 5.5C6.03119 5.5 6.03897 5.5 6.04674 5.5C6.0545 5.5 6.06226 5.5 6.07 5.5C6.07775 5.5 6.08548 5.5 6.0932 5.5C6.10092 5.5 6.10863 5.5 6.11633 5.5C6.12403 5.5 6.13172 5.5 6.13939 5.5C6.14707 5.5 6.15473 5.5 6.16239 5.5C6.17004 5.5 6.17768 5.5 6.18531 5.5C6.19294 5.5 6.20056 5.5 6.20817 5.5C6.21578 5.5 6.22337 5.5 6.23096 5.5C6.23854 5.5 6.24612 5.5 6.25368 5.5C6.26124 5.5 6.26879 5.5 6.27633 5.5C6.28387 5.5 6.2914 5.5 6.29892 5.5C6.30644 5.5 6.31394 5.5 6.32144 5.5C6.32893 5.5 6.33642 5.5 6.34389 5.5C6.35136 5.5 6.35882 5.5 6.36627 5.5C6.37372 5.5 6.38116 5.5 6.38859 5.5C6.39602 5.5 6.40343 5.5 6.41084 5.5C6.41824 5.5 6.42564 5.5 6.43302 5.5C6.4404 5.5 6.44778 5.5 6.45514 5.5C6.4625 5.5 6.46985 5.5 6.47718 5.5C6.48452 5.5 6.49185 5.5 6.49917 5.5C6.50648 5.5 6.51379 5.5 6.52108 5.5C6.52838 5.5 6.53566 5.5 6.54293 5.5C6.5502 5.5 6.55746 5.5 6.56471 5.5C6.57196 5.5 6.5792 5.5 6.58643 5.5C6.59366 5.5 6.60087 5.5 6.60808 5.5C6.61528 5.5 6.62248 5.5 6.62966 5.5C6.63684 5.5 6.64402 5.5 6.65118 5.5C6.65834 5.5 6.66549 5.5 6.67263 5.5C6.67977 5.5 6.6869 5.5 6.69401 5.5C6.70113 5.5 6.70824 5.5 6.71533 5.5C6.72243 5.5 6.72951 5.5 6.73659 5.5C6.74366 5.5 6.75072 5.5 6.75777 5.5C6.76482 5.5 6.77186 5.5 6.77889 5.5C6.78592 5.5 6.79294 5.5 6.79995 5.5C6.80696 5.5 6.81396 5.5 6.82094 5.5C6.82793 5.5 6.8349 5.5 6.84187 5.5C6.84883 5.5 6.85578 5.5 6.86273 5.5C6.86967 5.5 6.8766 5.5 6.88352 5.5C6.89044 5.5 6.89735 5.5 6.90425 5.5C6.91115 5.5 6.91804 5.5 6.92492 5.5C6.93179 5.5 6.93866 5.5 6.94552 5.5C6.95237 5.5 6.95922 5.5 6.96605 5.5C6.97289 5.5 6.97971 5.5 6.98652 5.5C6.99334 5.5 7.00014 5.5 7.00693 5.5C7.01372 5.5 7.0205 5.5 7.02727 5.5C7.03404 5.5 7.0408 5.5 7.04755 5.5C7.05429 5.5 7.06103 5.5 7.06776 5.5C7.07449 5.5 7.0812 5.5 7.08791 5.5C7.09461 5.5 7.10131 5.5 7.10799 5.5C7.11468 5.5 7.12135 5.5 7.12801 5.5C7.13467 5.5 7.14133 5.5 7.14797 5.5C7.15461 5.5 7.16124 5.5 7.16786 5.5C7.17448 5.5 7.18109 5.5 7.18769 5.5C7.19429 5.5 7.20087 5.5 7.20745 5.5C7.21403 5.5 7.2206 5.5 7.22715 5.5C7.23371 5.5 7.24025 5.5 7.24679 5.5C7.25332 5.5 7.25985 5.5 7.26636 5.5C7.27288 5.5 7.27938 5.5 7.28587 5.5C7.29237 5.5 7.29885 5.5 7.30532 5.5C7.31179 5.5 7.31825 5.5 7.3247 5.5C7.33115 5.5 7.33759 5.5 7.34402 5.5C7.35045 5.5 7.35687 5.5 7.36328 5.5C7.36969 5.5 7.37609 5.5 7.38248 5.5C7.38886 5.5 7.39524 5.5 7.40161 5.5C7.40797 5.5 7.41433 5.5 7.42068 5.5C7.42702 5.5 7.43336 5.5 7.43968 5.5C7.44601 5.5 7.45232 5.5 7.45863 5.5C7.46493 5.5 7.47122 5.5 7.47751 5.5C7.48379 5.5 7.49006 5.5 7.49633 5.5C7.50259 5.5 7.50884 5.5 7.51508 5.5C7.52133 5.5 7.52756 5.5 7.53378 5.5C7.54 5.5 7.54621 5.5 7.55241 5.5C7.55861 5.5 7.5648 5.5 7.57098 5.5C7.57716 5.5 7.58333 5.5 7.58949 5.5C7.59565 5.5 7.6018 5.5 7.60793 5.5C7.61407 5.5 7.6202 5.5 7.62632 5.5C7.63244 5.5 7.63854 5.5 7.64464 5.5C7.65074 5.5 7.65683 5.5 7.6629 5.5C7.66898 5.5 7.67505 5.5 7.6811 5.5C7.68716 5.5 7.6932 5.5 7.69924 5.5C7.70528 5.5 7.7113 5.5 7.71732 5.5C7.72333 5.5 7.72934 5.5 7.73533 5.5C7.74133 5.5 7.74731 5.5 7.75329 5.5C7.75926 5.5 7.76523 5.5 7.77118 5.5C7.77714 5.5 7.78308 5.5 7.78901 5.5C7.79495 5.5 7.80087 5.5 7.80679 5.5C7.8127 5.5 7.8186 5.5 7.8245 5.5C7.83039 5.5 7.83627 5.5 7.84215 5.5C7.84802 5.5 7.85388 5.5 7.85974 5.5C7.86559 5.5 7.87143 5.5 7.87726 5.5C7.8831 5.5 7.88892 5.5 7.89473 5.5C7.90055 5.5 7.90635 5.5 7.91214 5.5C7.91793 5.5 7.92372 5.5 7.92949 5.5C7.93526 5.5 7.94102 5.5 7.94678 5.5C7.95253 5.5 7.95827 5.5 7.964 5.5C7.96974 5.5 7.97546 5.5 7.98117 5.5C7.98689 5.5 7.99259 5.5 7.99828 5.5C8.00397 5.5 8.00966 5.5 8.01533 5.5C8.021 5.5 8.02666 5.5 8.03232 5.5C8.03797 5.5 8.04361 5.5 8.04925 5.5C8.05488 5.5 8.0605 5.5 8.06611 5.5C8.07173 5.5 8.07733 5.5 8.08292 5.5C8.08852 5.5 8.0941 5.5 8.09967 5.5C8.10525 5.5 8.11081 5.5 8.11636 5.5C8.12192 5.5 8.12746 5.5 8.133 5.5C8.13853 5.5 8.14406 5.5 8.14957 5.5C8.15508 5.5 8.16059 5.5 8.16608 5.5C8.17158 5.5 8.17706 5.5 8.18254 5.5C8.18801 5.5 8.19348 5.5 8.19893 5.5C8.20439 5.5 8.20984 5.5 8.21527 5.5C8.22071 5.5 8.22613 5.5 8.23155 5.5C8.23697 5.5 8.24237 5.5 8.24777 5.5C8.25317 5.5 8.25855 5.5 8.26393 5.5C8.26931 5.5 8.27468 5.5 8.28003 5.5C8.28539 5.5 8.29074 5.5 8.29608 5.5C8.30142 5.5 8.30675 5.5 8.31207 5.5C8.31738 5.5 8.32269 5.5 8.32799 5.5C8.33329 5.5 8.33858 5.5 8.34386 5.5C8.34914 5.5 8.35442 5.5 8.35968 5.5C8.36494 5.5 8.37019 5.5 8.37543 5.5C8.38067 5.5 8.38591 5.5 8.39113 5.5C8.39635 5.5 8.40156 5.5 8.40677 5.5C8.41197 5.5 8.41717 5.5 8.42235 5.5C8.42753 5.5 8.43271 5.5 8.43787 5.5C8.44304 5.5 8.44819 5.5 8.45334 5.5C8.45849 5.5 8.46362 5.5 8.46875 5.5C8.47388 5.5 8.47899 5.5 8.4841 5.5C8.48921 5.5 8.49431 5.5 8.4994 5.5C8.50449 5.5 8.50957 5.5 8.51464 5.5C8.51971 5.5 8.52477 5.5 8.52982 5.5C8.53487 5.5 8.53991 5.5 8.54494 5.5C8.54997 5.5 8.555 5.5 8.56001 5.5C8.56502 5.5 8.57002 5.5 8.57502 5.5C8.58001 5.5 8.585 5.5 8.58997 5.5C8.59495 5.5 8.59991 5.5 8.60487 5.5C8.60983 5.5 8.61477 5.5 8.61971 5.5C8.62465 5.5 8.62958 5.5 8.6345 5.5C8.63942 5.5 8.64433 5.5 8.64923 5.5C8.65413 5.5 8.65902 5.5 8.6639 5.5C8.66878 5.5 8.67365 5.5 8.67852 5.5C8.68338 5.5 8.68823 5.5 8.69308 5.5C8.69792 5.5 8.70275 5.5 8.70758 5.5C8.71241 5.5 8.71722 5.5 8.72203 5.5C8.72684 5.5 8.73163 5.5 8.73642 5.5C8.74121 5.5 8.74599 5.5 8.75076 5.5C8.75553 5.5 8.76029 5.5 8.76504 5.5C8.76979 5.5 8.77454 5.5 8.77927 5.5C8.784 5.5 8.78873 5.5 8.79344 5.5C8.79815 5.5 8.80286 5.5 8.80756 5.5C8.81225 5.5 8.81694 5.5 8.82162 5.5C8.82629 5.5 8.83096 5.5 8.83562 5.5C8.84028 5.5 8.84493 5.5 8.84957 5.5C8.85421 5.5 8.85885 5.5 8.86347 5.5C8.86809 5.5 8.87271 5.5 8.87731 5.5C8.88192 5.5 8.88651 5.5 8.8911 5.5C8.89568 5.5 8.90026 5.5 8.90483 5.5C8.9094 5.5 8.91396 5.5 8.91851 5.5C8.92306 5.5 8.9276 5.5 8.93213 5.5C8.93666 5.5 8.94118 5.5 8.9457 5.5C8.95021 5.5 8.95472 5.5 8.95921 5.5C8.96371 5.5 8.96819 5.5 8.97267 5.5C8.97715 5.5 8.98162 5.5 8.98608 5.5C8.99054 5.5 8.99499 5.5 8.99943 5.5C9.00387 5.5 9.0083 5.5 9.01273 5.5C9.01715 5.5 9.02157 5.5 9.02597 5.5C9.03038 5.5 9.03477 5.5 9.03916 5.5C9.04355 5.5 9.04793 5.5 9.0523 5.5C9.05667 5.5 9.06103 5.5 9.06538 5.5C9.06973 5.5 9.07408 5.5 9.07841 5.5C9.08275 5.5 9.08707 5.5 9.09139 5.5C9.0957 5.5 9.10001 5.5 9.10431 5.5C9.10861 5.5 9.1129 5.5 9.11718 5.5C9.12146 5.5 9.12573 5.5 9.13 5.5C9.13426 5.5 9.13852 5.5 9.14276 5.5C9.14701 5.5 9.15124 5.5 9.15547 5.5C9.1597 5.5 9.16392 5.5 9.16813 5.5C9.17234 5.5 9.17654 5.5 9.18074 5.5C9.18493 5.5 9.18911 5.5 9.19329 5.5C9.19746 5.5 9.20163 5.5 9.20579 5.5C9.20995 5.5 9.2141 5.5 9.21824 5.5C9.22238 5.5 9.22651 5.5 9.23063 5.5C9.23475 5.5 9.23887 5.5 9.24297 5.5C9.24708 5.5 9.25118 5.5 9.25526 5.5C9.25935 5.5 9.26343 5.5 9.2675 5.5C9.27157 5.5 9.27564 5.5 9.27969 5.5C9.28374 5.5 9.28779 5.5 9.29182 5.5C9.29586 5.5 9.29989 5.5 9.30391 5.5C9.30792 5.5 9.31194 5.5 9.31594 5.5C9.31994 5.5 9.32393 5.5 9.32792 5.5C9.3319 5.5 9.33588 5.5 9.33984 5.5C9.34381 5.5 9.34777 5.5 9.35172 5.5C9.35567 5.5 9.35961 5.5 9.36354 5.5C9.36748 5.5 9.3714 5.5 9.37532 5.5C9.37923 5.5 9.38314 5.5 9.38704 5.5C9.39094 5.5 9.39483 5.5 9.39871 5.5C9.40259 5.5 9.40647 5.5 9.41033 5.5C9.4142 5.5 9.41805 5.5 9.4219 5.5C9.42575 5.5 9.42959 5.5 9.43342 5.5C9.43725 5.5 9.44107 5.5 9.44489 5.5C9.4487 5.5 9.45251 5.5 9.4563 5.5C9.4601 5.5 9.46389 5.5 9.46767 5.5C9.47145 5.5 9.47522 5.5 9.47898 5.5C9.48275 5.5 9.4865 5.5 9.49025 5.5C9.494 5.5 9.49773 5.5 9.50146 5.5C9.50519 5.5 9.50891 5.5 9.51263 5.5C9.51634 5.5 9.52005 5.5 9.52374 5.5C9.52744 5.5 9.53113 5.5 9.53481 5.5C9.53849 5.5 9.54216 5.5 9.54582 5.5C9.54948 5.5 9.55314 5.5 9.55679 5.5C9.56043 5.5 9.56407 5.5 9.5677 5.5C9.57133 5.5 9.57495 5.5 9.57857 5.5C9.58218 5.5 9.58578 5.5 9.58938 5.5C9.59298 5.5 9.59657 5.5 9.60015 5.5C9.60373 5.5 9.6073 5.5 9.61086 5.5C9.61443 5.5 9.61798 5.5 9.62153 5.5C9.62508 5.5 9.62862 5.5 9.63215 5.5C9.63568 5.5 9.6392 5.5 9.64272 5.5C9.64623 5.5 9.64974 5.5 9.65324 5.5C9.65673 5.5 9.66022 5.5 9.66371 5.5C9.66719 5.5 9.67066 5.5 9.67413 5.5C9.67759 5.5 9.68105 5.5 9.6845 5.5C9.68795 5.5 9.69139 5.5 9.69482 5.5C9.69826 5.5 9.70168 5.5 9.7051 5.5C9.70852 5.5 9.71193 5.5 9.71533 5.5C9.71873 5.5 9.72212 5.5 9.7255 5.5C9.72889 5.5 9.73227 5.5 9.73563 5.5C9.739 5.5 9.74236 5.5 9.74572 5.5C9.74907 5.5 9.75241 5.5 9.75575 5.5C9.75909 5.5 9.76241 5.5 9.76574 5.5C9.76906 5.5 9.77237 5.5 9.77567 5.5C9.77898 5.5 9.78227 5.5 9.78556 5.5C9.78885 5.5 9.79213 5.5 9.7954 5.5C9.79868 5.5 9.80194 5.5 9.8052 5.5C9.80845 5.5 9.8117 5.5 9.81494 5.5C9.81818 5.5 9.82142 5.5 9.82464 5.5C9.82787 5.5 9.83109 5.5 9.83429 5.5C9.8375 5.5 9.8407 5.5 9.8439 5.5C9.84709 5.5 9.85028 5.5 9.85345 5.5C9.85663 5.5 9.8598 5.5 9.86296 5.5C9.86613 5.5 9.86928 5.5 9.87243 5.5C9.87557 5.5 9.87871 5.5 9.88184 5.5C9.88497 5.5 9.88809 5.5 9.89121 5.5C9.89432 5.5 9.89743 5.5 9.90053 5.5C9.90363 5.5 9.90672 5.5 9.90981 5.5C9.91289 5.5 9.91597 5.5 9.91903 5.5C9.9221 5.5 9.92516 5.5 9.92822 5.5C9.93127 5.5 9.93431 5.5 9.93735 5.5C9.94039 5.5 9.94342 5.5 9.94644 5.5C9.94946 5.5 9.95247 5.5 9.95548 5.5C9.95849 5.5 9.96149 5.5 9.96448 5.5C9.96747 5.5 9.97045 5.5 9.97343 5.5C9.9764 5.5 9.97937 5.5 9.98233 5.5C9.98529 5.5 9.98824 5.5 9.99119 5.5C9.99413 5.5 9.99707 5.5 10 5.5C10.0029 5.5 10.0059 5.5 10.0088 5.5C10.0117 5.5 10.0146 5.5 10.0175 5.5C10.0204 5.5 10.0233 5.5 10.0262 5.5C10.029 5.5 10.0319 5.5 10.0348 5.5C10.0377 5.5 10.0405 5.5 10.0434 5.5C10.0462 5.5 10.0491 5.5 10.0519 5.5C10.0548 5.5 10.0576 5.5 10.0604 5.5C10.0632 5.5 10.066 5.5 10.0689 5.5C10.0717 5.5 10.0745 5.5 10.0773 5.5C10.0801 5.5 10.0828 5.5 10.0856 5.5C10.0884 5.5 10.0912 5.5 10.0939 5.5C10.0967 5.5 10.0995 5.5 10.1022 5.5C10.1049 5.5 10.1077 5.5 10.1104 5.5C10.1132 5.5 10.1159 5.5 10.1186 5.5C10.1213 5.5 10.124 5.5 10.1267 5.5C10.1294 5.5 10.1321 5.5 10.1348 5.5C10.1375 5.5 10.1402 5.5 10.1429 5.5C10.1455 5.5 10.1482 5.5 10.1509 5.5C10.1535 5.5 10.1562 5.5 10.1588 5.5C10.1615 5.5 10.1641 5.5 10.1667 5.5C10.1694 5.5 10.172 5.5 10.1746 5.5C10.1772 5.5 10.1798 5.5 10.1824 5.5C10.185 5.5 10.1876 5.5 10.1902 5.5C10.1928 5.5 10.1954 5.5 10.198 5.5C10.2005 5.5 10.2031 5.5 10.2057 5.5C10.2082 5.5 10.2108 5.5 10.2133 5.5C10.2158 5.5 10.2184 5.5 10.2209 5.5C10.2234 5.5 10.226 5.5 10.2285 5.5C10.231 5.5 10.2335 5.5 10.236 5.5C10.2385 5.5 10.241 5.5 10.2435 5.5C10.246 5.5 10.2484 5.5 10.2509 5.5C10.2534 5.5 10.2558 5.5 10.2583 5.5C10.2608 5.5 10.2632 5.5 10.2656 5.5C10.2681 5.5 10.2705 5.5 10.273 5.5C10.2754 5.5 10.2778 5.5 10.2802 5.5C10.2826 5.5 10.285 5.5 10.2874 5.5C10.2898 5.5 10.2922 5.5 10.2946 5.5C10.297 5.5 10.2994 5.5 10.3018 5.5C10.3041 5.5 10.3065 5.5 10.3088 5.5C10.3112 5.5 10.3136 5.5 10.3159 5.5C10.3182 5.5 10.3206 5.5 10.3229 5.5C10.3252 5.5 10.3276 5.5 10.3299 5.5C10.3322 5.5 10.3345 5.5 10.3368 5.5C10.3391 5.5 10.3414 5.5 10.3437 5.5C10.346 5.5 10.3482 5.5 10.3505 5.5C10.3528 5.5 10.3551 5.5 10.3573 5.5C10.3596 5.5 10.3618 5.5 10.3641 5.5C10.3663 5.5 10.3686 5.5 10.3708 5.5C10.373 5.5 10.3752 5.5 10.3775 5.5C10.3797 5.5 10.3819 5.5 10.3841 5.5C10.3863 5.5 10.3885 5.5 10.3907 5.5C10.3929 5.5 10.3951 5.5 10.3972 5.5C10.3994 5.5 10.4016 5.5 10.4037 5.5C10.4059 5.5 10.4081 5.5 10.4102 5.5C10.4124 5.5 10.4145 5.5 10.4166 5.5C10.4188 5.5 10.4209 5.5 10.423 5.5C10.4251 5.5 10.4273 5.5 10.4294 5.5C10.4315 5.5 10.4336 5.5 10.4357 5.5C10.4378 5.5 10.4399 5.5 10.4419 5.5C10.444 5.5 10.4461 5.5 10.4482 5.5C10.4502 5.5 10.4523 5.5 10.4543 5.5C10.4564 5.5 10.4585 5.5 10.4605 5.5C10.4625 5.5 10.4646 5.5 10.4666 5.5C10.4686 5.5 10.4706 5.5 10.4727 5.5C10.4747 5.5 10.4767 5.5 10.4787 5.5C10.4807 5.5 10.4827 5.5 10.4847 5.5C10.4866 5.5 10.4886 5.5 10.4906 5.5C10.4926 5.5 10.4945 5.5 10.4965 5.5C10.4985 5.5 10.5004 5.5 10.5024 5.5C10.5043 5.5 10.5063 5.5 10.5082 5.5C10.5101 5.5 10.5121 5.5 10.514 5.5C10.5159 5.5 10.5178 5.5 10.5197 5.5C10.5216 5.5 10.5235 5.5 10.5254 5.5C10.5273 5.5 10.5292 5.5 10.5311 5.5C10.533 5.5 10.5349 5.5 10.5367 5.5C10.5386 5.5 10.5405 5.5 10.5423 5.5C10.5442 5.5 10.546 5.5 10.5479 5.5C10.5497 5.5 10.5515 5.5 10.5534 5.5C10.5552 5.5 10.557 5.5 10.5588 5.5C10.5607 5.5 10.5625 5.5 10.5643 5.5C10.5661 5.5 10.5679 5.5 10.5697 5.5C10.5715 5.5 10.5732 5.5 10.575 5.5C10.5768 5.5 10.5786 5.5 10.5803 5.5C10.5821 5.5 10.5839 5.5 10.5856 5.5C10.5874 5.5 10.5891 5.5 10.5909 5.5C10.5926 5.5 10.5943 5.5 10.5961 5.5C10.5978 5.5 10.5995 5.5 10.6012 5.5C10.6029 5.5 10.6046 5.5 10.6063 5.5C10.608 5.5 10.6097 5.5 10.6114 5.5C10.6131 5.5 10.6148 5.5 10.6165 5.5C10.6182 5.5 10.6198 5.5 10.6215 5.5C10.6232 5.5 10.6248 5.5 10.6265 5.5C10.6281 5.5 10.6298 5.5 10.6314 5.5C10.633 5.5 10.6347 5.5 10.6363 5.5C10.6379 5.5 10.6396 5.5 10.6412 5.5C10.6428 5.5 10.6444 5.5 10.646 5.5C10.6476 5.5 10.6492 5.5 10.6508 5.5C10.6524 5.5 10.654 5.5 10.6555 5.5C10.6571 5.5 10.6587 5.5 10.6602 5.5C10.6618 5.5 10.6634 5.5 10.6649 5.5C10.6665 5.5 10.668 5.5 10.6696 5.5C10.6711 5.5 10.6726 5.5 10.6742 5.5C10.6757 5.5 10.6772 5.5 10.6787 5.5C10.6803 5.5 10.6818 5.5 10.6833 5.5C10.6848 5.5 10.6863 5.5 10.6878 5.5C10.6893 5.5 10.6907 5.5 10.6922 5.5C10.6937 5.5 10.6952 5.5 10.6966 5.5C10.6981 5.5 10.6996 5.5 10.701 5.5C10.7025 5.5 10.7039 5.5 10.7054 5.5C10.7068 5.5 10.7083 5.5 10.7097 5.5C10.7111 5.5 10.7125 5.5 10.714 5.5C10.7154 5.5 10.7168 5.5 10.7182 5.5C10.7196 5.5 10.721 5.5 10.7224 5.5C10.7238 5.5 10.7252 5.5 10.7266 5.5C10.728 5.5 10.7293 5.5 10.7307 5.5C10.7321 5.5 10.7334 5.5 10.7348 5.5C10.7362 5.5 10.7375 5.5 10.7389 5.5C10.7402 5.5 10.7416 5.5 10.7429 5.5C10.7442 5.5 10.7456 5.5 10.7469 5.5C10.7482 5.5 10.7495 5.5 10.7508 5.5C10.7522 5.5 10.7535 5.5 10.7548 5.5C10.7561 5.5 10.7574 5.5 10.7587 5.5C10.7599 5.5 10.7612 5.5 10.7625 5.5C10.7638 5.5 10.7651 5.5 10.7663 5.5C10.7676 5.5 10.7689 5.5 10.7701 5.5C10.7714 5.5 10.7726 5.5 10.7739 5.5C10.7751 5.5 10.7763 5.5 10.7776 5.5C10.7788 5.5 10.78 5.5 10.7812 5.5C10.7825 5.5 10.7837 5.5 10.7849 5.5C10.7861 5.5 10.7873 5.5 10.7885 5.5C10.7897 5.5 10.7909 5.5 10.7921 5.5C10.7933 5.5 10.7944 5.5 10.7956 5.5C10.7968 5.5 10.798 5.5 10.7991 5.5C10.8003 5.5 10.8015 5.5 10.8026 5.5C10.8038 5.5 10.8049 5.5 10.806 5.5C10.8072 5.5 10.8083 5.5 10.8095 5.5C10.8106 5.5 10.8117 5.5 10.8128 5.5C10.8139 5.5 10.8151 5.5 10.8162 5.5C10.8173 5.5 10.8184 5.5 10.8195 5.5C10.8206 5.5 10.8217 5.5 10.8227 5.5C10.8238 5.5 10.8249 5.5 10.826 5.5C10.8271 5.5 10.8281 5.5 10.8292 5.5C10.8303 5.5 10.8313 5.5 10.8324 5.5C10.8334 5.5 10.8345 5.5 10.8355 5.5C10.8366 5.5 10.8376 5.5 10.8386 5.5C10.8396 5.5 10.8407 5.5 10.8417 5.5C10.8427 5.5 10.8437 5.5 10.8447 5.5C10.8457 5.5 10.8467 5.5 10.8477 5.5C10.8487 5.5 10.8497 5.5 10.8507 5.5C10.8517 5.5 10.8527 5.5 10.8537 5.5C10.8546 5.5 10.8556 5.5 10.8566 5.5C10.8575 5.5 10.8585 5.5 10.8595 5.5C10.8604 5.5 10.8614 5.5 10.8623 5.5C10.8633 5.5 10.8642 5.5 10.8651 5.5C10.8661 5.5 10.867 5.5 10.8679 5.5C10.8688 5.5 10.8697 5.5 10.8707 5.5C10.8716 5.5 10.8725 5.5 10.8734 5.5C10.8743 5.5 10.8752 5.5 10.8761 5.5C10.877 5.5 10.8778 5.5 10.8787 5.5C10.8796 5.5 10.8805 5.5 10.8813 5.5C10.8822 5.5 10.8831 5.5 10.8839 5.5C10.8848 5.5 10.8857 5.5 10.8865 5.5C10.8874 5.5 10.8882 5.5 10.889 5.5C10.8899 5.5 10.8907 5.5 10.8915 5.5C10.8924 5.5 10.8932 5.5 10.894 5.5C10.8948 5.5 10.8956 5.5 10.8964 5.5C10.8972 5.5 10.898 5.5 10.8988 5.5C10.8996 5.5 10.9004 5.5 10.9012 5.5C10.902 5.5 10.9028 5.5 10.9036 5.5C10.9043 5.5 10.9051 5.5 10.9059 5.5C10.9066 5.5 10.9074 5.5 10.9082 5.5C10.9089 5.5 10.9097 5.5 10.9104 5.5C10.9112 5.5 10.9119 5.5 10.9126 5.5C10.9134 5.5 10.9141 5.5 10.9148 5.5C10.9156 5.5 10.9163 5.5 10.917 5.5C10.9177 5.5 10.9184 5.5 10.9191 5.5C10.9198 5.5 10.9205 5.5 10.9212 5.5C10.9219 5.5 10.9226 5.5 10.9233 5.5C10.924 5.5 10.9247 5.5 10.9253 5.5C10.926 5.5 10.9267 5.5 10.9274 5.5C10.928 5.5 10.9287 5.5 10.9293 5.5C10.93 5.5 10.9306 5.5 10.9313 5.5C10.9319 5.5 10.9326 5.5 10.9332 5.5C10.9339 5.5 10.9345 5.5 10.9351 5.5C10.9357 5.5 10.9364 5.5 10.937 5.5C10.9376 5.5 10.9382 5.5 10.9388 5.5C10.9394 5.5 10.94 5.5 10.9406 5.5C10.9412 5.5 10.9418 5.5 10.9424 5.5C10.943 5.5 10.9436 5.5 10.9441 5.5C10.9447 5.5 10.9453 5.5 10.9459 5.5C10.9464 5.5 10.947 5.5 10.9476 5.5C10.9481 5.5 10.9487 5.5 10.9492 5.5C10.9498 5.5 10.9503 5.5 10.9509 5.5C10.9514 5.5 10.9519 5.5 10.9525 5.5C10.953 5.5 10.9535 5.5 10.954 5.5C10.9546 5.5 10.9551 5.5 10.9556 5.5C10.9561 5.5 10.9566 5.5 10.9571 5.5C10.9576 5.5 10.9581 5.5 10.9586 5.5C10.9591 5.5 10.9596 5.5 10.9601 5.5C10.9605 5.5 10.961 5.5 10.9615 5.5C10.962 5.5 10.9624 5.5 10.9629 5.5C10.9634 5.5 10.9638 5.5 10.9643 5.5C10.9647 5.5 10.9652 5.5 10.9656 5.5C10.9661 5.5 10.9665 5.5 10.967 5.5C10.9674 5.5 10.9678 5.5 10.9683 5.5C10.9687 5.5 10.9691 5.5 10.9695 5.5C10.9699 5.5 10.9704 5.5 10.9708 5.5C10.9712 5.5 10.9716 5.5 10.972 5.5C10.9724 5.5 10.9728 5.5 10.9732 5.5C10.9736 5.5 10.974 5.5 10.9743 5.5C10.9747 5.5 10.9751 5.5 10.9755 5.5C10.9758 5.5 10.9762 5.5 10.9766 5.5C10.9769 5.5 10.9773 5.5 10.9777 5.5C10.978 5.5 10.9784 5.5 10.9787 5.5C10.9791 5.5 10.9794 5.5 10.9797 5.5C10.9801 5.5 10.9804 5.5 10.9807 5.5C10.9811 5.5 10.9814 5.5 10.9817 5.5C10.982 5.5 10.9823 5.5 10.9827 5.5C10.983 5.5 10.9833 5.5 10.9836 5.5C10.9839 5.5 10.9842 5.5 10.9845 5.5C10.9848 5.5 10.9851 5.5 10.9853 5.5C10.9856 5.5 10.9859 5.5 10.9862 5.5C10.9865 5.5 10.9867 5.5 10.987 5.5C10.9873 5.5 10.9875 5.5 10.9878 5.5C10.9881 5.5 10.9883 5.5 10.9886 5.5C10.9888 5.5 10.9891 5.5 10.9893 5.5C10.9895 5.5 10.9898 5.5 10.99 5.5C10.9902 5.5 10.9905 5.5 10.9907 5.5C10.9909 5.5 10.9911 5.5 10.9914 5.5C10.9916 5.5 10.9918 5.5 10.992 5.5C10.9922 5.5 10.9924 5.5 10.9926 5.5C10.9928 5.5 10.993 5.5 10.9932 5.5C10.9934 5.5 10.9936 5.5 10.9938 5.5C10.9939 5.5 10.9941 5.5 10.9943 5.5C10.9945 5.5 10.9946 5.5 10.9948 5.5C10.995 5.5 10.9951 5.5 10.9953 5.5C10.9955 5.5 10.9956 5.5 10.9958 5.5C10.9959 5.5 10.9961 5.5 10.9962 5.5C10.9963 5.5 10.9965 5.5 10.9966 5.5C10.9968 5.5 10.9969 5.5 10.997 5.5C10.9971 5.5 10.9973 5.5 10.9974 5.5C10.9975 5.5 10.9976 5.5 10.9977 5.5C10.9978 5.5 10.9979 5.5 10.998 5.5C10.9981 5.5 10.9982 5.5 10.9983 5.5C10.9984 5.5 10.9985 5.5 10.9986 5.5C10.9987 5.5 10.9988 5.5 10.9988 5.5C10.9989 5.5 10.999 5.5 10.9991 5.5C10.9991 5.5 10.9992 5.5 10.9993 5.5C10.9993 5.5 10.9994 5.5 10.9994 5.5C10.9995 5.5 10.9995 5.5 10.9996 5.5C10.9996 5.5 10.9997 5.5 10.9997 5.5C10.9998 5.5 10.9998 5.5 10.9998 5.5C10.9998 5.5 10.9999 5.5 10.9999 5.5C10.9999 5.5 10.9999 5.5 11 5.5C11 5.5 11 5.5 11 5.5C11 5.5 11 5.5 11 5C11 4.5 11 4.5 11 4.5C11 4.5 11 4.5 11 4.5C10.9999 4.5 10.9999 4.5 10.9999 4.5C10.9999 4.5 10.9998 4.5 10.9998 4.5C10.9998 4.5 10.9998 4.5 10.9997 4.5C10.9997 4.5 10.9996 4.5 10.9996 4.5C10.9995 4.5 10.9995 4.5 10.9994 4.5C10.9994 4.5 10.9993 4.5 10.9993 4.5C10.9992 4.5 10.9991 4.5 10.9991 4.5C10.999 4.5 10.9989 4.5 10.9988 4.5C10.9988 4.5 10.9987 4.5 10.9986 4.5C10.9985 4.5 10.9984 4.5 10.9983 4.5C10.9982 4.5 10.9981 4.5 10.998 4.5C10.9979 4.5 10.9978 4.5 10.9977 4.5C10.9976 4.5 10.9975 4.5 10.9974 4.5C10.9973 4.5 10.9971 4.5 10.997 4.5C10.9969 4.5 10.9968 4.5 10.9966 4.5C10.9965 4.5 10.9963 4.5 10.9962 4.5C10.9961 4.5 10.9959 4.5 10.9958 4.5C10.9956 4.5 10.9955 4.5 10.9953 4.5C10.9951 4.5 10.995 4.5 10.9948 4.5C10.9946 4.5 10.9945 4.5 10.9943 4.5C10.9941 4.5 10.9939 4.5 10.9938 4.5C10.9936 4.5 10.9934 4.5 10.9932 4.5C10.993 4.5 10.9928 4.5 10.9926 4.5C10.9924 4.5 10.9922 4.5 10.992 4.5C10.9918 4.5 10.9916 4.5 10.9914 4.5C10.9911 4.5 10.9909 4.5 10.9907 4.5C10.9905 4.5 10.9902 4.5 10.99 4.5C10.9898 4.5 10.9895 4.5 10.9893 4.5C10.9891 4.5 10.9888 4.5 10.9886 4.5C10.9883 4.5 10.9881 4.5 10.9878 4.5C10.9875 4.5 10.9873 4.5 10.987 4.5C10.9867 4.5 10.9865 4.5 10.9862 4.5C10.9859 4.5 10.9856 4.5 10.9853 4.5C10.9851 4.5 10.9848 4.5 10.9845 4.5C10.9842 4.5 10.9839 4.5 10.9836 4.5C10.9833 4.5 10.983 4.5 10.9827 4.5C10.9823 4.5 10.982 4.5 10.9817 4.5C10.9814 4.5 10.9811 4.5 10.9807 4.5C10.9804 4.5 10.9801 4.5 10.9797 4.5C10.9794 4.5 10.9791 4.5 10.9787 4.5C10.9784 4.5 10.978 4.5 10.9777 4.5C10.9773 4.5 10.9769 4.5 10.9766 4.5C10.9762 4.5 10.9758 4.5 10.9755 4.5C10.9751 4.5 10.9747 4.5 10.9743 4.5C10.974 4.5 10.9736 4.5 10.9732 4.5C10.9728 4.5 10.9724 4.5 10.972 4.5C10.9716 4.5 10.9712 4.5 10.9708 4.5C10.9704 4.5 10.9699 4.5 10.9695 4.5C10.9691 4.5 10.9687 4.5 10.9683 4.5C10.9678 4.5 10.9674 4.5 10.967 4.5C10.9665 4.5 10.9661 4.5 10.9656 4.5C10.9652 4.5 10.9647 4.5 10.9643 4.5C10.9638 4.5 10.9634 4.5 10.9629 4.5C10.9624 4.5 10.962 4.5 10.9615 4.5C10.961 4.5 10.9605 4.5 10.9601 4.5C10.9596 4.5 10.9591 4.5 10.9586 4.5C10.9581 4.5 10.9576 4.5 10.9571 4.5C10.9566 4.5 10.9561 4.5 10.9556 4.5C10.9551 4.5 10.9546 4.5 10.954 4.5C10.9535 4.5 10.953 4.5 10.9525 4.5C10.9519 4.5 10.9514 4.5 10.9509 4.5C10.9503 4.5 10.9498 4.5 10.9492 4.5C10.9487 4.5 10.9481 4.5 10.9476 4.5C10.947 4.5 10.9464 4.5 10.9459 4.5C10.9453 4.5 10.9447 4.5 10.9441 4.5C10.9436 4.5 10.943 4.5 10.9424 4.5C10.9418 4.5 10.9412 4.5 10.9406 4.5C10.94 4.5 10.9394 4.5 10.9388 4.5C10.9382 4.5 10.9376 4.5 10.937 4.5C10.9364 4.5 10.9357 4.5 10.9351 4.5C10.9345 4.5 10.9339 4.5 10.9332 4.5C10.9326 4.5 10.9319 4.5 10.9313 4.5C10.9306 4.5 10.93 4.5 10.9293 4.5C10.9287 4.5 10.928 4.5 10.9274 4.5C10.9267 4.5 10.926 4.5 10.9253 4.5C10.9247 4.5 10.924 4.5 10.9233 4.5C10.9226 4.5 10.9219 4.5 10.9212 4.5C10.9205 4.5 10.9198 4.5 10.9191 4.5C10.9184 4.5 10.9177 4.5 10.917 4.5C10.9163 4.5 10.9156 4.5 10.9148 4.5C10.9141 4.5 10.9134 4.5 10.9126 4.5C10.9119 4.5 10.9112 4.5 10.9104 4.5C10.9097 4.5 10.9089 4.5 10.9082 4.5C10.9074 4.5 10.9066 4.5 10.9059 4.5C10.9051 4.5 10.9043 4.5 10.9036 4.5C10.9028 4.5 10.902 4.5 10.9012 4.5C10.9004 4.5 10.8996 4.5 10.8988 4.5C10.898 4.5 10.8972 4.5 10.8964 4.5C10.8956 4.5 10.8948 4.5 10.894 4.5C10.8932 4.5 10.8924 4.5 10.8915 4.5C10.8907 4.5 10.8899 4.5 10.889 4.5C10.8882 4.5 10.8874 4.5 10.8865 4.5C10.8857 4.5 10.8848 4.5 10.8839 4.5C10.8831 4.5 10.8822 4.5 10.8813 4.5C10.8805 4.5 10.8796 4.5 10.8787 4.5C10.8778 4.5 10.877 4.5 10.8761 4.5C10.8752 4.5 10.8743 4.5 10.8734 4.5C10.8725 4.5 10.8716 4.5 10.8707 4.5C10.8697 4.5 10.8688 4.5 10.8679 4.5C10.867 4.5 10.8661 4.5 10.8651 4.5C10.8642 4.5 10.8633 4.5 10.8623 4.5C10.8614 4.5 10.8604 4.5 10.8595 4.5C10.8585 4.5 10.8575 4.5 10.8566 4.5C10.8556 4.5 10.8546 4.5 10.8537 4.5C10.8527 4.5 10.8517 4.5 10.8507 4.5C10.8497 4.5 10.8487 4.5 10.8477 4.5C10.8467 4.5 10.8457 4.5 10.8447 4.5C10.8437 4.5 10.8427 4.5 10.8417 4.5C10.8407 4.5 10.8396 4.5 10.8386 4.5C10.8376 4.5 10.8366 4.5 10.8355 4.5C10.8345 4.5 10.8334 4.5 10.8324 4.5C10.8313 4.5 10.8303 4.5 10.8292 4.5C10.8281 4.5 10.8271 4.5 10.826 4.5C10.8249 4.5 10.8238 4.5 10.8227 4.5C10.8217 4.5 10.8206 4.5 10.8195 4.5C10.8184 4.5 10.8173 4.5 10.8162 4.5C10.8151 4.5 10.8139 4.5 10.8128 4.5C10.8117 4.5 10.8106 4.5 10.8095 4.5C10.8083 4.5 10.8072 4.5 10.806 4.5C10.8049 4.5 10.8038 4.5 10.8026 4.5C10.8015 4.5 10.8003 4.5 10.7991 4.5C10.798 4.5 10.7968 4.5 10.7956 4.5C10.7944 4.5 10.7933 4.5 10.7921 4.5C10.7909 4.5 10.7897 4.5 10.7885 4.5C10.7873 4.5 10.7861 4.5 10.7849 4.5C10.7837 4.5 10.7825 4.5 10.7812 4.5C10.78 4.5 10.7788 4.5 10.7776 4.5C10.7763 4.5 10.7751 4.5 10.7739 4.5C10.7726 4.5 10.7714 4.5 10.7701 4.5C10.7689 4.5 10.7676 4.5 10.7663 4.5C10.7651 4.5 10.7638 4.5 10.7625 4.5C10.7612 4.5 10.7599 4.5 10.7587 4.5C10.7574 4.5 10.7561 4.5 10.7548 4.5C10.7535 4.5 10.7522 4.5 10.7508 4.5C10.7495 4.5 10.7482 4.5 10.7469 4.5C10.7456 4.5 10.7442 4.5 10.7429 4.5C10.7416 4.5 10.7402 4.5 10.7389 4.5C10.7375 4.5 10.7362 4.5 10.7348 4.5C10.7334 4.5 10.7321 4.5 10.7307 4.5C10.7293 4.5 10.728 4.5 10.7266 4.5C10.7252 4.5 10.7238 4.5 10.7224 4.5C10.721 4.5 10.7196 4.5 10.7182 4.5C10.7168 4.5 10.7154 4.5 10.714 4.5C10.7125 4.5 10.7111 4.5 10.7097 4.5C10.7083 4.5 10.7068 4.5 10.7054 4.5C10.7039 4.5 10.7025 4.5 10.701 4.5C10.6996 4.5 10.6981 4.5 10.6966 4.5C10.6952 4.5 10.6937 4.5 10.6922 4.5C10.6907 4.5 10.6893 4.5 10.6878 4.5C10.6863 4.5 10.6848 4.5 10.6833 4.5C10.6818 4.5 10.6803 4.5 10.6787 4.5C10.6772 4.5 10.6757 4.5 10.6742 4.5C10.6726 4.5 10.6711 4.5 10.6696 4.5C10.668 4.5 10.6665 4.5 10.6649 4.5C10.6634 4.5 10.6618 4.5 10.6602 4.5C10.6587 4.5 10.6571 4.5 10.6555 4.5C10.654 4.5 10.6524 4.5 10.6508 4.5C10.6492 4.5 10.6476 4.5 10.646 4.5C10.6444 4.5 10.6428 4.5 10.6412 4.5C10.6396 4.5 10.6379 4.5 10.6363 4.5C10.6347 4.5 10.633 4.5 10.6314 4.5C10.6298 4.5 10.6281 4.5 10.6265 4.5C10.6248 4.5 10.6232 4.5 10.6215 4.5C10.6198 4.5 10.6182 4.5 10.6165 4.5C10.6148 4.5 10.6131 4.5 10.6114 4.5C10.6097 4.5 10.608 4.5 10.6063 4.5C10.6046 4.5 10.6029 4.5 10.6012 4.5C10.5995 4.5 10.5978 4.5 10.5961 4.5C10.5943 4.5 10.5926 4.5 10.5909 4.5C10.5891 4.5 10.5874 4.5 10.5856 4.5C10.5839 4.5 10.5821 4.5 10.5803 4.5C10.5786 4.5 10.5768 4.5 10.575 4.5C10.5732 4.5 10.5715 4.5 10.5697 4.5C10.5679 4.5 10.5661 4.5 10.5643 4.5C10.5625 4.5 10.5607 4.5 10.5588 4.5C10.557 4.5 10.5552 4.5 10.5534 4.5C10.5515 4.5 10.5497 4.5 10.5479 4.5C10.546 4.5 10.5442 4.5 10.5423 4.5C10.5405 4.5 10.5386 4.5 10.5367 4.5C10.5349 4.5 10.533 4.5 10.5311 4.5C10.5292 4.5 10.5273 4.5 10.5254 4.5C10.5235 4.5 10.5216 4.5 10.5197 4.5C10.5178 4.5 10.5159 4.5 10.514 4.5C10.5121 4.5 10.5101 4.5 10.5082 4.5C10.5063 4.5 10.5043 4.5 10.5024 4.5C10.5004 4.5 10.4985 4.5 10.4965 4.5C10.4945 4.5 10.4926 4.5 10.4906 4.5C10.4886 4.5 10.4866 4.5 10.4847 4.5C10.4827 4.5 10.4807 4.5 10.4787 4.5C10.4767 4.5 10.4747 4.5 10.4727 4.5C10.4706 4.5 10.4686 4.5 10.4666 4.5C10.4646 4.5 10.4625 4.5 10.4605 4.5C10.4585 4.5 10.4564 4.5 10.4543 4.5C10.4523 4.5 10.4502 4.5 10.4482 4.5C10.4461 4.5 10.444 4.5 10.4419 4.5C10.4399 4.5 10.4378 4.5 10.4357 4.5C10.4336 4.5 10.4315 4.5 10.4294 4.5C10.4273 4.5 10.4251 4.5 10.423 4.5C10.4209 4.5 10.4188 4.5 10.4166 4.5C10.4145 4.5 10.4124 4.5 10.4102 4.5C10.4081 4.5 10.4059 4.5 10.4037 4.5C10.4016 4.5 10.3994 4.5 10.3972 4.5C10.3951 4.5 10.3929 4.5 10.3907 4.5C10.3885 4.5 10.3863 4.5 10.3841 4.5C10.3819 4.5 10.3797 4.5 10.3775 4.5C10.3752 4.5 10.373 4.5 10.3708 4.5C10.3686 4.5 10.3663 4.5 10.3641 4.5C10.3618 4.5 10.3596 4.5 10.3573 4.5C10.3551 4.5 10.3528 4.5 10.3505 4.5C10.3482 4.5 10.346 4.5 10.3437 4.5C10.3414 4.5 10.3391 4.5 10.3368 4.5C10.3345 4.5 10.3322 4.5 10.3299 4.5C10.3276 4.5 10.3252 4.5 10.3229 4.5C10.3206 4.5 10.3182 4.5 10.3159 4.5C10.3136 4.5 10.3112 4.5 10.3088 4.5C10.3065 4.5 10.3041 4.5 10.3018 4.5C10.2994 4.5 10.297 4.5 10.2946 4.5C10.2922 4.5 10.2898 4.5 10.2874 4.5C10.285 4.5 10.2826 4.5 10.2802 4.5C10.2778 4.5 10.2754 4.5 10.273 4.5C10.2705 4.5 10.2681 4.5 10.2656 4.5C10.2632 4.5 10.2608 4.5 10.2583 4.5C10.2558 4.5 10.2534 4.5 10.2509 4.5C10.2484 4.5 10.246 4.5 10.2435 4.5C10.241 4.5 10.2385 4.5 10.236 4.5C10.2335 4.5 10.231 4.5 10.2285 4.5C10.226 4.5 10.2234 4.5 10.2209 4.5C10.2184 4.5 10.2158 4.5 10.2133 4.5C10.2108 4.5 10.2082 4.5 10.2057 4.5C10.2031 4.5 10.2005 4.5 10.198 4.5C10.1954 4.5 10.1928 4.5 10.1902 4.5C10.1876 4.5 10.185 4.5 10.1824 4.5C10.1798 4.5 10.1772 4.5 10.1746 4.5C10.172 4.5 10.1694 4.5 10.1667 4.5C10.1641 4.5 10.1615 4.5 10.1588 4.5C10.1562 4.5 10.1535 4.5 10.1509 4.5C10.1482 4.5 10.1455 4.5 10.1429 4.5C10.1402 4.5 10.1375 4.5 10.1348 4.5C10.1321 4.5 10.1294 4.5 10.1267 4.5C10.124 4.5 10.1213 4.5 10.1186 4.5C10.1159 4.5 10.1132 4.5 10.1104 4.5C10.1077 4.5 10.1049 4.5 10.1022 4.5C10.0995 4.5 10.0967 4.5 10.0939 4.5C10.0912 4.5 10.0884 4.5 10.0856 4.5C10.0828 4.5 10.0801 4.5 10.0773 4.5C10.0745 4.5 10.0717 4.5 10.0689 4.5C10.066 4.5 10.0632 4.5 10.0604 4.5C10.0576 4.5 10.0548 4.5 10.0519 4.5C10.0491 4.5 10.0462 4.5 10.0434 4.5C10.0405 4.5 10.0377 4.5 10.0348 4.5C10.0319 4.5 10.029 4.5 10.0262 4.5C10.0233 4.5 10.0204 4.5 10.0175 4.5C10.0146 4.5 10.0117 4.5 10.0088 4.5C10.0059 4.5 10.0029 4.5 10 4.5C9.99707 4.5 9.99413 4.5 9.99119 4.5C9.98824 4.5 9.98529 4.5 9.98233 4.5C9.97937 4.5 9.9764 4.5 9.97343 4.5C9.97045 4.5 9.96747 4.5 9.96448 4.5C9.96149 4.5 9.95849 4.5 9.95548 4.5C9.95247 4.5 9.94946 4.5 9.94644 4.5C9.94342 4.5 9.94039 4.5 9.93735 4.5C9.93431 4.5 9.93127 4.5 9.92822 4.5C9.92516 4.5 9.9221 4.5 9.91903 4.5C9.91597 4.5 9.91289 4.5 9.90981 4.5C9.90672 4.5 9.90363 4.5 9.90053 4.5C9.89743 4.5 9.89432 4.5 9.89121 4.5C9.88809 4.5 9.88497 4.5 9.88184 4.5C9.87871 4.5 9.87557 4.5 9.87243 4.5C9.86928 4.5 9.86613 4.5 9.86296 4.5C9.8598 4.5 9.85663 4.5 9.85345 4.5C9.85028 4.5 9.84709 4.5 9.8439 4.5C9.8407 4.5 9.8375 4.5 9.83429 4.5C9.83109 4.5 9.82787 4.5 9.82464 4.5C9.82142 4.5 9.81818 4.5 9.81494 4.5C9.8117 4.5 9.80845 4.5 9.8052 4.5C9.80194 4.5 9.79868 4.5 9.7954 4.5C9.79213 4.5 9.78885 4.5 9.78556 4.5C9.78227 4.5 9.77898 4.5 9.77567 4.5C9.77237 4.5 9.76906 4.5 9.76574 4.5C9.76241 4.5 9.75909 4.5 9.75575 4.5C9.75241 4.5 9.74907 4.5 9.74572 4.5C9.74236 4.5 9.739 4.5 9.73563 4.5C9.73227 4.5 9.72889 4.5 9.7255 4.5C9.72212 4.5 9.71873 4.5 9.71533 4.5C9.71193 4.5 9.70852 4.5 9.7051 4.5C9.70168 4.5 9.69826 4.5 9.69482 4.5C9.69139 4.5 9.68795 4.5 9.6845 4.5C9.68105 4.5 9.67759 4.5 9.67413 4.5C9.67066 4.5 9.66719 4.5 9.66371 4.5C9.66022 4.5 9.65673 4.5 9.65324 4.5C9.64974 4.5 9.64623 4.5 9.64272 4.5C9.6392 4.5 9.63568 4.5 9.63215 4.5C9.62862 4.5 9.62508 4.5 9.62153 4.5C9.61798 4.5 9.61443 4.5 9.61086 4.5C9.6073 4.5 9.60373 4.5 9.60015 4.5C9.59657 4.5 9.59298 4.5 9.58938 4.5C9.58578 4.5 9.58218 4.5 9.57857 4.5C9.57495 4.5 9.57133 4.5 9.5677 4.5C9.56407 4.5 9.56043 4.5 9.55679 4.5C9.55314 4.5 9.54948 4.5 9.54582 4.5C9.54216 4.5 9.53849 4.5 9.53481 4.5C9.53113 4.5 9.52744 4.5 9.52374 4.5C9.52005 4.5 9.51634 4.5 9.51263 4.5C9.50891 4.5 9.50519 4.5 9.50146 4.5C9.49773 4.5 9.494 4.5 9.49025 4.5C9.4865 4.5 9.48275 4.5 9.47898 4.5C9.47522 4.5 9.47145 4.5 9.46767 4.5C9.46389 4.5 9.4601 4.5 9.4563 4.5C9.45251 4.5 9.4487 4.5 9.44489 4.5C9.44107 4.5 9.43725 4.5 9.43342 4.5C9.42959 4.5 9.42575 4.5 9.4219 4.5C9.41805 4.5 9.4142 4.5 9.41033 4.5C9.40647 4.5 9.40259 4.5 9.39871 4.5C9.39483 4.5 9.39094 4.5 9.38704 4.5C9.38314 4.5 9.37923 4.5 9.37532 4.5C9.3714 4.5 9.36748 4.5 9.36354 4.5C9.35961 4.5 9.35567 4.5 9.35172 4.5C9.34777 4.5 9.34381 4.5 9.33984 4.5C9.33588 4.5 9.3319 4.5 9.32792 4.5C9.32393 4.5 9.31994 4.5 9.31594 4.5C9.31194 4.5 9.30792 4.5 9.30391 4.5C9.29989 4.5 9.29586 4.5 9.29182 4.5C9.28779 4.5 9.28374 4.5 9.27969 4.5C9.27564 4.5 9.27157 4.5 9.2675 4.5C9.26343 4.5 9.25935 4.5 9.25526 4.5C9.25118 4.5 9.24708 4.5 9.24297 4.5C9.23887 4.5 9.23475 4.5 9.23063 4.5C9.22651 4.5 9.22238 4.5 9.21824 4.5C9.2141 4.5 9.20995 4.5 9.20579 4.5C9.20163 4.5 9.19746 4.5 9.19329 4.5C9.18911 4.5 9.18493 4.5 9.18074 4.5C9.17654 4.5 9.17234 4.5 9.16813 4.5C9.16392 4.5 9.1597 4.5 9.15547 4.5C9.15124 4.5 9.14701 4.5 9.14276 4.5C9.13852 4.5 9.13426 4.5 9.13 4.5C9.12573 4.5 9.12146 4.5 9.11718 4.5C9.1129 4.5 9.10861 4.5 9.10431 4.5C9.10001 4.5 9.0957 4.5 9.09139 4.5C9.08707 4.5 9.08275 4.5 9.07841 4.5C9.07408 4.5 9.06973 4.5 9.06538 4.5C9.06103 4.5 9.05667 4.5 9.0523 4.5C9.04793 4.5 9.04355 4.5 9.03916 4.5C9.03477 4.5 9.03038 4.5 9.02597 4.5C9.02157 4.5 9.01715 4.5 9.01273 4.5C9.0083 4.5 9.00387 4.5 8.99943 4.5C8.99499 4.5 8.99054 4.5 8.98608 4.5C8.98162 4.5 8.97715 4.5 8.97267 4.5C8.96819 4.5 8.96371 4.5 8.95921 4.5C8.95472 4.5 8.95021 4.5 8.9457 4.5C8.94118 4.5 8.93666 4.5 8.93213 4.5C8.9276 4.5 8.92306 4.5 8.91851 4.5C8.91396 4.5 8.9094 4.5 8.90483 4.5C8.90026 4.5 8.89568 4.5 8.8911 4.5C8.88651 4.5 8.88192 4.5 8.87731 4.5C8.87271 4.5 8.86809 4.5 8.86347 4.5C8.85885 4.5 8.85421 4.5 8.84957 4.5C8.84493 4.5 8.84028 4.5 8.83562 4.5C8.83096 4.5 8.82629 4.5 8.82162 4.5C8.81694 4.5 8.81225 4.5 8.80756 4.5C8.80286 4.5 8.79815 4.5 8.79344 4.5C8.78873 4.5 8.784 4.5 8.77927 4.5C8.77454 4.5 8.76979 4.5 8.76504 4.5C8.76029 4.5 8.75553 4.5 8.75076 4.5C8.74599 4.5 8.74121 4.5 8.73642 4.5C8.73163 4.5 8.72684 4.5 8.72203 4.5C8.71722 4.5 8.71241 4.5 8.70758 4.5C8.70275 4.5 8.69792 4.5 8.69308 4.5C8.68823 4.5 8.68338 4.5 8.67852 4.5C8.67365 4.5 8.66878 4.5 8.6639 4.5C8.65902 4.5 8.65413 4.5 8.64923 4.5C8.64433 4.5 8.63942 4.5 8.6345 4.5C8.62958 4.5 8.62465 4.5 8.61971 4.5C8.61477 4.5 8.60983 4.5 8.60487 4.5C8.59991 4.5 8.59495 4.5 8.58997 4.5C8.585 4.5 8.58001 4.5 8.57502 4.5C8.57002 4.5 8.56502 4.5 8.56001 4.5C8.555 4.5 8.54997 4.5 8.54494 4.5C8.53991 4.5 8.53487 4.5 8.52982 4.5C8.52477 4.5 8.51971 4.5 8.51464 4.5C8.50957 4.5 8.50449 4.5 8.4994 4.5C8.49431 4.5 8.48921 4.5 8.4841 4.5C8.47899 4.5 8.47388 4.5 8.46875 4.5C8.46362 4.5 8.45849 4.5 8.45334 4.5C8.44819 4.5 8.44304 4.5 8.43787 4.5C8.43271 4.5 8.42753 4.5 8.42235 4.5C8.41717 4.5 8.41197 4.5 8.40677 4.5C8.40156 4.5 8.39635 4.5 8.39113 4.5C8.38591 4.5 8.38067 4.5 8.37543 4.5C8.37019 4.5 8.36494 4.5 8.35968 4.5C8.35442 4.5 8.34914 4.5 8.34386 4.5C8.33858 4.5 8.33329 4.5 8.32799 4.5C8.32269 4.5 8.31738 4.5 8.31207 4.5C8.30675 4.5 8.30142 4.5 8.29608 4.5C8.29074 4.5 8.28539 4.5 8.28003 4.5C8.27468 4.5 8.26931 4.5 8.26393 4.5C8.25855 4.5 8.25317 4.5 8.24777 4.5C8.24237 4.5 8.23697 4.5 8.23155 4.5C8.22613 4.5 8.22071 4.5 8.21527 4.5C8.20984 4.5 8.20439 4.5 8.19893 4.5C8.19348 4.5 8.18801 4.5 8.18254 4.5C8.17706 4.5 8.17158 4.5 8.16608 4.5C8.16059 4.5 8.15508 4.5 8.14957 4.5C8.14406 4.5 8.13853 4.5 8.133 4.5C8.12746 4.5 8.12192 4.5 8.11636 4.5C8.11081 4.5 8.10525 4.5 8.09967 4.5C8.0941 4.5 8.08852 4.5 8.08292 4.5C8.07733 4.5 8.07173 4.5 8.06611 4.5C8.0605 4.5 8.05488 4.5 8.04925 4.5C8.04361 4.5 8.03797 4.5 8.03232 4.5C8.02666 4.5 8.021 4.5 8.01533 4.5C8.00966 4.5 8.00397 4.5 7.99828 4.5C7.99259 4.5 7.98689 4.5 7.98117 4.5C7.97546 4.5 7.96974 4.5 7.964 4.5C7.95827 4.5 7.95253 4.5 7.94678 4.5C7.94102 4.5 7.93526 4.5 7.92949 4.5C7.92372 4.5 7.91793 4.5 7.91214 4.5C7.90635 4.5 7.90055 4.5 7.89473 4.5C7.88892 4.5 7.8831 4.5 7.87726 4.5C7.87143 4.5 7.86559 4.5 7.85974 4.5C7.85388 4.5 7.84802 4.5 7.84215 4.5C7.83627 4.5 7.83039 4.5 7.8245 4.5C7.8186 4.5 7.8127 4.5 7.80679 4.5C7.80087 4.5 7.79495 4.5 7.78901 4.5C7.78308 4.5 7.77714 4.5 7.77118 4.5C7.76523 4.5 7.75926 4.5 7.75329 4.5C7.74731 4.5 7.74133 4.5 7.73533 4.5C7.72934 4.5 7.72333 4.5 7.71732 4.5C7.7113 4.5 7.70528 4.5 7.69924 4.5C7.6932 4.5 7.68716 4.5 7.6811 4.5C7.67505 4.5 7.66898 4.5 7.6629 4.5C7.65683 4.5 7.65074 4.5 7.64464 4.5C7.63854 4.5 7.63244 4.5 7.62632 4.5C7.6202 4.5 7.61407 4.5 7.60793 4.5C7.6018 4.5 7.59565 4.5 7.58949 4.5C7.58333 4.5 7.57716 4.5 7.57098 4.5C7.5648 4.5 7.55861 4.5 7.55241 4.5C7.54621 4.5 7.54 4.5 7.53378 4.5C7.52756 4.5 7.52133 4.5 7.51508 4.5C7.50884 4.5 7.50259 4.5 7.49633 4.5C7.49006 4.5 7.48379 4.5 7.47751 4.5C7.47122 4.5 7.46493 4.5 7.45863 4.5C7.45232 4.5 7.44601 4.5 7.43968 4.5C7.43336 4.5 7.42702 4.5 7.42068 4.5C7.41433 4.5 7.40797 4.5 7.40161 4.5C7.39524 4.5 7.38886 4.5 7.38248 4.5C7.37609 4.5 7.36969 4.5 7.36328 4.5C7.35687 4.5 7.35045 4.5 7.34402 4.5C7.33759 4.5 7.33115 4.5 7.3247 4.5C7.31825 4.5 7.31179 4.5 7.30532 4.5C7.29885 4.5 7.29237 4.5 7.28587 4.5C7.27938 4.5 7.27288 4.5 7.26636 4.5C7.25985 4.5 7.25332 4.5 7.24679 4.5C7.24025 4.5 7.23371 4.5 7.22715 4.5C7.2206 4.5 7.21403 4.5 7.20745 4.5C7.20087 4.5 7.19429 4.5 7.18769 4.5C7.18109 4.5 7.17448 4.5 7.16786 4.5C7.16124 4.5 7.15461 4.5 7.14797 4.5C7.14133 4.5 7.13467 4.5 7.12801 4.5C7.12135 4.5 7.11468 4.5 7.10799 4.5C7.10131 4.5 7.09461 4.5 7.08791 4.5C7.0812 4.5 7.07449 4.5 7.06776 4.5C7.06103 4.5 7.05429 4.5 7.04755 4.5C7.0408 4.5 7.03404 4.5 7.02727 4.5C7.0205 4.5 7.01372 4.5 7.00693 4.5C7.00014 4.5 6.99334 4.5 6.98652 4.5C6.97971 4.5 6.97289 4.5 6.96605 4.5C6.95922 4.5 6.95237 4.5 6.94552 4.5C6.93866 4.5 6.93179 4.5 6.92492 4.5C6.91804 4.5 6.91115 4.5 6.90425 4.5C6.89735 4.5 6.89044 4.5 6.88352 4.5C6.8766 4.5 6.86967 4.5 6.86273 4.5C6.85578 4.5 6.84883 4.5 6.84187 4.5C6.8349 4.5 6.82793 4.5 6.82094 4.5C6.81396 4.5 6.80696 4.5 6.79995 4.5C6.79294 4.5 6.78592 4.5 6.77889 4.5C6.77186 4.5 6.76482 4.5 6.75777 4.5C6.75072 4.5 6.74366 4.5 6.73659 4.5C6.72951 4.5 6.72243 4.5 6.71533 4.5C6.70824 4.5 6.70113 4.5 6.69401 4.5C6.6869 4.5 6.67977 4.5 6.67263 4.5C6.66549 4.5 6.65834 4.5 6.65118 4.5C6.64402 4.5 6.63684 4.5 6.62966 4.5C6.62248 4.5 6.61528 4.5 6.60808 4.5C6.60087 4.5 6.59366 4.5 6.58643 4.5C6.5792 4.5 6.57196 4.5 6.56471 4.5C6.55746 4.5 6.5502 4.5 6.54293 4.5C6.53566 4.5 6.52838 4.5 6.52108 4.5C6.51379 4.5 6.50648 4.5 6.49917 4.5C6.49185 4.5 6.48452 4.5 6.47718 4.5C6.46985 4.5 6.4625 4.5 6.45514 4.5C6.44778 4.5 6.4404 4.5 6.43302 4.5C6.42564 4.5 6.41824 4.5 6.41084 4.5C6.40343 4.5 6.39602 4.5 6.38859 4.5C6.38116 4.5 6.37372 4.5 6.36627 4.5C6.35882 4.5 6.35136 4.5 6.34389 4.5C6.33642 4.5 6.32893 4.5 6.32144 4.5C6.31394 4.5 6.30644 4.5 6.29892 4.5C6.2914 4.5 6.28387 4.5 6.27633 4.5C6.26879 4.5 6.26124 4.5 6.25368 4.5C6.24612 4.5 6.23854 4.5 6.23096 4.5C6.22337 4.5 6.21578 4.5 6.20817 4.5C6.20056 4.5 6.19294 4.5 6.18531 4.5C6.17768 4.5 6.17004 4.5 6.16239 4.5C6.15473 4.5 6.14707 4.5 6.13939 4.5C6.13172 4.5 6.12403 4.5 6.11633 4.5C6.10863 4.5 6.10092 4.5 6.0932 4.5C6.08548 4.5 6.07775 4.5 6.07 4.5C6.06226 4.5 6.0545 4.5 6.04674 4.5C6.03897 4.5 6.03119 4.5 6.0234 4.5C6.01561 4.5 6.00781 4.5 6 4.5V5Z" fill="#3399FF"/>
</svg>
