<svg width="12" height="12" viewBox="0 0 12 12" fill="none" xmlns="http://www.w3.org/2000/svg">
<rect x="4" y="7" width="4" height="4" rx="2" fill="url(#paint0_linear_781_16)"/>
<path d="M5.5 8C5.5 8.27614 5.72386 8.5 6 8.5C6.27614 8.5 6.5 8.27614 6.5 8H6H5.5ZM6.35355 0.646447C6.15829 0.451184 5.84171 0.451184 5.64645 0.646447L2.46447 3.82843C2.2692 4.02369 2.2692 4.34027 2.46447 4.53553C2.65973 4.7308 2.97631 4.7308 3.17157 4.53553L6 1.70711L8.82843 4.53553C9.02369 4.7308 9.34027 4.7308 9.53553 4.53553C9.7308 4.34027 9.7308 4.02369 9.53553 3.82843L6.35355 0.646447ZM6 1H5.5V8H6H6.5V1H6Z" fill="url(#paint1_linear_781_16)"/>
<defs>
<linearGradient id="paint0_linear_781_16" x1="6" y1="7" x2="6" y2="11" gradientUnits="userSpaceOnUse">
<stop stop-color="#999999"/>
<stop offset="1" stop-color="#5C5C5C"/>
</linearGradient>
<linearGradient id="paint1_linear_781_16" x1="5" y1="6" x2="5" y2="10.9998" gradientUnits="userSpaceOnUse">
<stop stop-color="#3399FF"/>
<stop offset="1" stop-color="#1F5C99"/>
</linearGradient>
</defs>
</svg>
