<svg width="160" height="160" viewBox="0 0 160 160" fill="none" xmlns="http://www.w3.org/2000/svg">
<g clip-path="url(#clip0_716_1416)">
<g filter="url(#filter0_f_716_1416)">
<path d="M5.37204 61.5125C1.27479 54.8996 5.03104 44.1924 12.2668 41.859L94.2123 15.4334C99.1343 13.8462 104.472 15.8619 107.259 20.3602L154.573 96.7239C158.67 103.337 154.914 114.044 147.678 116.377L65.7327 142.803C60.8107 144.39 55.4727 142.375 52.6856 137.876L5.37204 61.5125Z" fill="url(#paint0_linear_716_1416)"/>
<path d="M93.7516 14.0057C99.3515 12.1999 105.397 14.5052 108.535 19.5702L155.848 95.9335C158.194 99.7188 158.232 104.545 156.791 108.652C155.351 112.756 152.322 116.455 148.138 117.805L66.193 144.23C60.5931 146.036 54.549 143.731 51.4108 138.666L4.09729 62.3026C1.75207 58.5174 1.71309 53.6923 3.15393 49.5848C4.59358 45.4811 7.62239 41.7808 11.8063 40.4315L93.7516 14.0057Z" stroke="url(#paint1_linear_716_1416)" stroke-width="3" stroke-miterlimit="16" stroke-linecap="round"/>
</g>
<path d="M4.67533 62.2239C0.578728 55.8482 4.33652 45.5237 11.5729 43.2729L93.5257 17.7824C98.4482 16.2513 103.786 18.1942 106.573 22.5311L153.879 96.1551C157.976 102.531 154.218 112.855 146.981 115.106L65.0285 140.597C60.1061 142.128 54.7682 140.185 51.9815 135.848L4.67533 62.2239Z" fill="url(#paint2_linear_716_1416)"/>
<path d="M6.85107 56.246C2.74507 49.8961 5.8305 41.419 13.0575 39.194L94.9039 13.9958C99.82 12.4823 105.158 14.4251 107.951 18.7445L155.366 92.0705C159.472 98.4203 156.386 106.897 149.159 109.122C117.196 118.963 99.2758 124.48 67.3128 134.321C62.3967 135.834 57.0588 133.891 54.2657 129.572L6.85107 56.246Z" fill="url(#paint3_linear_716_1416)"/>
<path d="M31.4919 65.9589L29.4663 63.5743L30.9672 52.745L23.236 54.8166L21.3545 52.6016L33.5003 49.3472L35.2452 51.4014L33.659 62.6701L43.0994 60.1405L44.9734 62.3466L31.4919 65.9589ZM62.0657 57.7667L58.4209 58.7433L54.4456 56.1574L47.8124 57.9348L48.9691 61.2759L45.4148 62.2283L40.756 47.403L44.299 46.4537L62.0657 57.7667ZM51.4963 54.2395L45.0826 49.9935L46.9685 55.4527L51.4963 54.2395ZM63.8655 57.2845L52.7433 44.191L59.7953 42.3014C61.5687 41.8263 62.9565 41.6006 63.9587 41.6244C64.9635 41.6403 65.9627 41.8842 66.9565 42.3562C67.9503 42.8281 68.776 43.4512 69.4335 44.2252C70.268 45.2077 70.5924 46.1185 70.4067 46.9577C70.2159 47.7909 69.4631 48.486 68.1483 49.043C69.156 49.1823 70.0632 49.3888 70.8699 49.6624C71.6842 49.9339 72.9238 50.4716 74.5886 51.2754L78.7846 53.2869L74.7775 54.3606L69.9349 52.1606C68.2098 51.3729 67.0774 50.8905 66.5379 50.7135C65.9934 50.5304 65.5033 50.4388 65.0677 50.4386C64.6271 50.4324 64.0219 50.5324 63.2521 50.7387L62.573 50.9207L67.2161 56.3867L63.8655 57.2845ZM60.7977 48.8307L63.2766 48.1665C64.884 47.7358 65.8421 47.4133 66.151 47.1989C66.46 46.9846 66.6163 46.7161 66.6202 46.3934C66.624 46.0708 66.459 45.713 66.1252 45.32C65.7509 44.8794 65.2991 44.5655 64.7696 44.3785C64.2427 44.1834 63.6772 44.123 63.0731 44.1971C62.7762 44.2401 61.9485 44.4436 60.5902 44.8076L57.9754 45.5082L60.7977 48.8307ZM80.607 52.7986L69.4848 39.7052L81.789 36.4082L83.6705 38.6232L74.7169 41.0224L77.1826 43.9251L85.5137 41.6928L87.3876 43.8988L79.0565 46.1311L82.0836 49.6948L91.3542 47.2107L93.2282 49.4168L80.607 52.7986ZM96.0241 48.6676L84.9019 35.5742L89.9164 34.2305L100.514 42.3551L95.9044 32.626L100.93 31.2794L112.052 44.3728L108.94 45.2069L100.184 34.9001L105.646 46.0895L102.42 46.9539L90.3818 37.5267L99.1369 47.8335L96.0241 48.6676Z" fill="#666666"/>
<path d="M119.188 98.7627L109.84 101.268L103.265 93.5269C104.34 93.038 105.5 92.6267 106.745 92.2931C108.336 91.8668 109.646 91.7046 110.674 91.8067C111.709 91.9071 112.604 92.1698 113.359 92.595C114.109 93.0152 114.845 93.6495 115.566 94.498L119.188 98.7627ZM115.017 97.6693L113.026 95.3248C112.44 94.6351 111.803 94.163 111.116 93.9085C110.429 93.654 109.573 93.6641 108.548 93.9388C108.001 94.0854 107.568 94.2348 107.25 94.3872L110.961 98.7561L115.017 97.6693ZM129.272 96.0608L126.631 96.7685L123.331 92.8833C122.614 92.0398 121.835 91.5086 120.992 91.2896C120.157 91.0689 119.16 91.1136 118.003 91.4236C117.412 91.582 116.669 91.8389 115.774 92.1944L114.179 90.6026C114.945 90.1962 115.92 89.8346 117.102 89.5178C118.894 89.0376 120.491 88.9723 121.892 89.3218C123.293 89.6713 124.545 90.496 125.649 91.796L129.272 96.0608ZM132.664 87.2942C131.79 87.5284 131.227 87.8742 130.975 88.3316C130.718 88.7841 130.879 89.3502 131.456 90.03C131.616 90.2185 131.856 90.4649 132.176 90.7689C133.113 91.6448 133.896 92.4523 134.524 93.1917L135.535 94.3825L133.074 95.0422L132.22 94.0374C131.643 93.3576 130.941 92.6045 130.115 91.778C129.812 91.4755 129.572 91.2201 129.395 91.0117C128.636 90.1185 128.467 89.3417 128.886 88.6811L126.122 89.4217L124.592 87.6205L131.393 85.7982L132.664 87.2942Z" fill="#666666"/>
</g>
<defs>
<filter id="filter0_f_716_1416" x="-9.31812" y="1.89511" width="178.581" height="154.446" filterUnits="userSpaceOnUse" color-interpolation-filters="sRGB">
<feFlood flood-opacity="0" result="BackgroundImageFix"/>
<feBlend mode="normal" in="SourceGraphic" in2="BackgroundImageFix" result="shape"/>
<feGaussianBlur stdDeviation="5" result="effect1_foregroundBlur_716_1416"/>
</filter>
<linearGradient id="paint0_linear_716_1416" x1="-17.3346" y1="113.048" x2="178.692" y2="49.548" gradientUnits="userSpaceOnUse">
<stop stop-color="#034AC9"/>
<stop offset="1" stop-color="#5838FA"/>
</linearGradient>
<linearGradient id="paint1_linear_716_1416" x1="177.041" y1="44.4456" x2="-18.404" y2="109.411" gradientUnits="userSpaceOnUse">
<stop offset="0.2" stop-color="#5838FA"/>
<stop offset="0.8" stop-color="#034AC9"/>
</linearGradient>
<linearGradient id="paint2_linear_716_1416" x1="157.369" y1="140.741" x2="-0.0571367" y2="17.9578" gradientUnits="userSpaceOnUse">
<stop stop-color="#333333"/>
<stop offset="1" stop-color="#666666"/>
</linearGradient>
<linearGradient id="paint3_linear_716_1416" x1="178.104" y1="41.8011" x2="7.53876" y2="145.639" gradientUnits="userSpaceOnUse">
<stop stop-color="white"/>
<stop offset="1" stop-color="#333333"/>
</linearGradient>
<clipPath id="clip0_716_1416">
<rect width="160" height="160" fill="white"/>
</clipPath>
</defs>
</svg>
