<svg width="160" height="160" viewBox="0 0 160 160" fill="none" xmlns="http://www.w3.org/2000/svg">
<g clip-path="url(#clip0_812_36)">
<g filter="url(#filter0_f_812_36)">
<path d="M5.37204 61.5125C1.27479 54.8996 5.03104 44.1924 12.2668 41.859L94.2123 15.4334C99.1343 13.8462 104.472 15.8619 107.259 20.3602L154.573 96.7239C158.67 103.337 154.914 114.044 147.678 116.377L65.7327 142.803C60.8107 144.39 55.4727 142.375 52.6856 137.876L5.37204 61.5125Z" fill="url(#paint0_linear_812_36)"/>
<path d="M93.7516 14.0057C99.3515 12.1999 105.397 14.5052 108.535 19.5702L155.848 95.9335C158.194 99.7188 158.232 104.545 156.791 108.652C155.351 112.756 152.322 116.455 148.138 117.805L66.193 144.23C60.5931 146.036 54.549 143.731 51.4108 138.666L4.09729 62.3026C1.75207 58.5174 1.71309 53.6923 3.15393 49.5848C4.59358 45.4811 7.62239 41.7808 11.8063 40.4315L93.7516 14.0057Z" stroke="url(#paint1_linear_812_36)" stroke-width="3" stroke-miterlimit="16" stroke-linecap="round"/>
</g>
<path d="M4.67533 62.2239C0.578728 55.8482 4.33652 45.5237 11.5729 43.2729L93.5257 17.7824C98.4482 16.2513 103.786 18.1942 106.573 22.5311L153.879 96.1551C157.976 102.531 154.218 112.855 146.981 115.106L65.0285 140.597C60.1061 142.128 54.7682 140.185 51.9815 135.848L4.67533 62.2239Z" fill="url(#paint2_linear_812_36)"/>
<path d="M6.85107 56.246C2.74507 49.8961 5.8305 41.419 13.0575 39.194L94.9039 13.9958C99.82 12.4823 105.158 14.4251 107.951 18.7445L155.366 92.0705C159.472 98.4203 156.386 106.897 149.159 109.122C117.196 118.963 99.2758 124.48 67.3128 134.321C62.3967 135.834 57.0588 133.891 54.2657 129.572L6.85107 56.246Z" fill="url(#paint3_linear_812_36)"/>
<path d="M66.2234 118.243L64.9573 116.753L65.8954 109.985L61.0635 111.279L59.8875 109.895L67.4786 107.861L68.5692 109.145L67.5778 116.188L73.4781 114.607L74.6493 115.986L66.2234 118.243ZM85.332 113.123L83.054 113.734L80.5694 112.117L76.4237 113.228L77.1467 115.317L74.9252 115.912L72.0135 106.646L74.2278 106.053L85.332 113.123ZM78.7261 110.919L74.7176 108.265L75.8963 111.677L78.7261 110.919ZM86.4569 112.822L79.5055 104.638L83.913 103.457C85.0214 103.16 85.8888 103.019 86.5152 103.034C87.1431 103.044 87.7676 103.197 88.3888 103.492C89.0099 103.787 89.5259 104.176 89.9369 104.66C90.4585 105.274 90.6612 105.843 90.5451 106.368C90.4259 106.888 89.9554 107.323 89.1336 107.671C89.7634 107.758 90.3304 107.887 90.8346 108.058C91.3436 108.228 92.1183 108.564 93.1588 109.066L95.7813 110.323L93.2769 110.994L90.2503 109.619C89.172 109.127 88.4643 108.826 88.1272 108.715C87.7868 108.601 87.4805 108.543 87.2083 108.543C86.9329 108.539 86.5546 108.602 86.0735 108.731L85.6491 108.844L88.551 112.261L86.4569 112.822ZM84.5395 107.538L86.0888 107.123C87.0934 106.854 87.6923 106.652 87.8853 106.518C88.0784 106.384 88.1762 106.217 88.1786 106.015C88.181 105.813 88.0778 105.59 87.8692 105.344C87.6353 105.069 87.3529 104.873 87.022 104.756C86.6926 104.634 86.3392 104.596 85.9616 104.642C85.776 104.669 85.2588 104.796 84.4098 105.024L82.7756 105.462L84.5395 107.538ZM96.9203 110.018L89.9689 101.835L97.6591 99.7742L98.835 101.159L93.239 102.658L94.78 104.472L99.987 103.077L101.158 104.456L95.9512 105.851L97.8432 108.078L103.637 106.526L104.809 107.905L96.9203 110.018ZM106.556 107.436L99.6046 99.2529L102.739 98.4131L109.362 103.491L106.481 97.4103L109.622 96.5687L116.574 104.752L114.628 105.273L109.156 98.8316L112.569 105.825L110.553 106.365L103.03 100.473L108.502 106.915L106.556 107.436Z" fill="#666666"/>
<path d="M82.2777 53.0362L67.321 57.0439L56.8006 44.659C58.52 43.8767 60.3758 43.2186 62.368 42.6848C64.9136 42.0027 67.0093 41.7433 68.6549 41.9066C70.3106 42.0672 71.7424 42.4876 72.9501 43.1678C74.1511 43.8401 75.3282 44.855 76.4814 46.2126L82.2777 53.0362ZM75.6038 51.2867L72.4173 47.5355C71.48 46.432 70.4616 45.6766 69.3623 45.2695C68.263 44.8623 66.8933 44.8785 65.2532 45.3179C64.3778 45.5525 63.6855 45.7916 63.1761 46.0353L69.114 53.0256L75.6038 51.2867ZM98.4117 48.7131L94.1858 49.8455L88.9054 43.6292C87.7589 42.2796 86.5119 41.4296 85.1644 41.0792C83.8269 40.7261 82.2325 40.7976 80.3811 41.2937C79.4353 41.5471 78.2467 41.9582 76.8153 42.5269L74.2628 39.98C75.4891 39.3298 77.0481 38.7513 78.9397 38.2444C81.8073 37.476 84.3617 37.3715 86.6031 37.9307C88.8444 38.4899 90.8485 39.8095 92.6154 41.8895L98.4117 48.7131ZM103.839 34.6866C102.44 35.0613 101.539 35.6146 101.136 36.3465C100.725 37.0704 100.982 37.9762 101.906 39.0638C102.162 39.3655 102.547 39.7596 103.059 40.2462C104.558 41.6475 105.81 42.9396 106.815 44.1225L108.433 46.0279L104.494 47.0834L103.128 45.4757C102.204 44.3881 101.082 43.1831 99.7612 41.8607C99.2759 41.3767 98.8917 40.968 98.6085 40.6346C97.3946 39.2055 97.1231 37.9626 97.794 36.9057L93.3718 38.0906L90.9239 35.2087L101.806 32.2929L103.839 34.6866Z" fill="#666666"/>
</g>
<defs>
<filter id="filter0_f_812_36" x="-9.31812" y="1.89511" width="178.581" height="154.446" filterUnits="userSpaceOnUse" color-interpolation-filters="sRGB">
<feFlood flood-opacity="0" result="BackgroundImageFix"/>
<feBlend mode="normal" in="SourceGraphic" in2="BackgroundImageFix" result="shape"/>
<feGaussianBlur stdDeviation="5" result="effect1_foregroundBlur_812_36"/>
</filter>
<linearGradient id="paint0_linear_812_36" x1="-17.3346" y1="113.048" x2="178.692" y2="49.548" gradientUnits="userSpaceOnUse">
<stop stop-color="#034AC9"/>
<stop offset="1" stop-color="#5838FA"/>
</linearGradient>
<linearGradient id="paint1_linear_812_36" x1="177.041" y1="44.4456" x2="-18.404" y2="109.411" gradientUnits="userSpaceOnUse">
<stop offset="0.2" stop-color="#5838FA"/>
<stop offset="0.8" stop-color="#034AC9"/>
</linearGradient>
<linearGradient id="paint2_linear_812_36" x1="157.369" y1="140.741" x2="-0.0571367" y2="17.9578" gradientUnits="userSpaceOnUse">
<stop stop-color="#333333"/>
<stop offset="1" stop-color="#666666"/>
</linearGradient>
<linearGradient id="paint3_linear_812_36" x1="178.104" y1="41.8011" x2="7.53876" y2="145.639" gradientUnits="userSpaceOnUse">
<stop stop-color="white"/>
<stop offset="1" stop-color="#333333"/>
</linearGradient>
<clipPath id="clip0_812_36">
<rect width="160" height="160" fill="white"/>
</clipPath>
</defs>
</svg>
