<svg width="24" height="24" viewBox="0 0 24 24" fill="none" xmlns="http://www.w3.org/2000/svg">
<g clip-path="url(#clip0_716_1466)">
<path d="M6.02028 17.0003L5.45028 14.3453H2.52528L1.94028 17.0003H0.605282L3.14028 6.5003H4.86528L7.35528 17.0003H6.02028ZM3.98028 7.49031L2.76528 13.2203H5.21028L3.98028 7.49031ZM13.4903 14.4503C13.4903 15.3003 13.2553 15.9403 12.7853 16.3703C12.3253 16.7903 11.6603 17.0003 10.7903 17.0003H8.81028V15.8603H10.9403C11.3103 15.8603 11.6103 15.7503 11.8403 15.5303C12.0703 15.3103 12.1853 15.0453 12.1853 14.7353V13.1753C12.1853 12.8753 12.1053 12.6353 11.9453 12.4553C11.7953 12.2653 11.5653 12.1703 11.2553 12.1703H10.9553C10.2153 12.1703 9.63028 11.9553 9.20028 11.5253C8.77028 11.0853 8.55528 10.4503 8.55528 9.6203V9.0503C8.55528 8.2003 8.78528 7.56531 9.24528 7.14531C9.71528 6.7153 10.3853 6.5003 11.2553 6.5003H13.2503V7.6403H11.1053C10.7353 7.6403 10.4353 7.7503 10.2053 7.9703C9.97528 8.1903 9.86028 8.4553 9.86028 8.7653V9.9053C9.86028 10.2153 9.96028 10.4753 10.1603 10.6853C10.3603 10.8853 10.6203 10.9853 10.9403 10.9853H11.2403C11.9503 10.9853 12.5003 11.1903 12.8903 11.6003C13.2903 12.0103 13.4903 12.6303 13.4903 13.4603V14.4503ZM21.2521 17.0003V7.5803L19.6471 13.4753H18.4021L16.7971 7.5803V17.0003H15.5971V6.5003H17.7121L19.0771 11.8703L20.4271 6.5003H22.4971V17.0003H21.2521Z" fill="url(#paint0_linear_716_1466)"/>
<path d="M6.02028 17.0003L5.53142 17.1053L5.61623 17.5003H6.02028V17.0003ZM5.45028 14.3453L5.93914 14.2404L5.85433 13.8453H5.45028V14.3453ZM2.52528 14.3453V13.8453H2.12346L2.03699 14.2377L2.52528 14.3453ZM1.94028 17.0003V17.5003H2.34211L2.42857 17.1079L1.94028 17.0003ZM0.605282 17.0003L0.119246 16.883L-0.029798 17.5003H0.605282V17.0003ZM3.14028 6.5003V6.0003H2.74663L2.65425 6.38296L3.14028 6.5003ZM4.86528 6.5003L5.35179 6.38493L5.26058 6.0003H4.86528V6.5003ZM7.35528 17.0003V17.5003H7.98772L7.84179 16.8849L7.35528 17.0003ZM3.98028 7.49031L4.46915 7.38537L3.49116 7.38659L3.98028 7.49031ZM2.76528 13.2203L2.27616 13.1166L2.14814 13.7203H2.76528V13.2203ZM5.21028 13.2203V13.7203H5.829L5.69915 13.1154L5.21028 13.2203ZM6.02028 17.0003L6.50914 16.8954L5.93914 14.2404L5.45028 14.3453L4.96142 14.4503L5.53142 17.1053L6.02028 17.0003ZM5.45028 14.3453V13.8453H2.52528V14.3453V14.8453H5.45028V14.3453ZM2.52528 14.3453L2.03699 14.2377L1.45199 16.8927L1.94028 17.0003L2.42857 17.1079L3.01357 14.4529L2.52528 14.3453ZM1.94028 17.0003V16.5003H0.605282V17.0003V17.5003H1.94028V17.0003ZM0.605282 17.0003L1.09132 17.1176L3.62632 6.61765L3.14028 6.5003L2.65425 6.38296L0.119246 16.883L0.605282 17.0003ZM3.14028 6.5003V7.0003H4.86528V6.5003V6.0003H3.14028V6.5003ZM4.86528 6.5003L4.37877 6.61568L6.86877 17.1157L7.35528 17.0003L7.84179 16.8849L5.35179 6.38493L4.86528 6.5003ZM7.35528 17.0003V16.5003H6.02028V17.0003V17.5003H7.35528V17.0003ZM3.98028 7.49031L3.49116 7.38659L2.27616 13.1166L2.76528 13.2203L3.25441 13.324L4.46941 7.59402L3.98028 7.49031ZM2.76528 13.2203V13.7203H5.21028V13.2203V12.7203H2.76528V13.2203ZM5.21028 13.2203L5.69915 13.1154L4.46915 7.38537L3.98028 7.49031L3.49142 7.59524L4.72142 13.3252L5.21028 13.2203ZM12.7853 16.3703L13.1224 16.7395L13.1228 16.7392L12.7853 16.3703ZM8.81028 17.0003H8.31028V17.5003H8.81028V17.0003ZM8.81028 15.8603V15.3603H8.31028V15.8603H8.81028ZM11.8403 15.5303L12.1859 15.8916L11.8403 15.5303ZM11.9453 12.4553L11.5528 12.7651L11.5619 12.7766L11.5716 12.7875L11.9453 12.4553ZM9.20028 11.5253L8.84266 11.8748L8.84673 11.8789L9.20028 11.5253ZM9.24528 7.14531L9.58242 7.51455L9.58279 7.51421L9.24528 7.14531ZM13.2503 6.5003H13.7503V6.0003H13.2503V6.5003ZM13.2503 7.6403V8.1403H13.7503V7.6403H13.2503ZM10.2053 7.9703L9.85967 7.60898L9.85967 7.60898L10.2053 7.9703ZM10.1603 10.6853L9.79811 11.0302L9.80673 11.0389L10.1603 10.6853ZM12.8903 11.6003L12.528 11.9449L12.5324 11.9495L12.8903 11.6003ZM13.4903 14.4503H12.9903C12.9903 15.2091 12.7828 15.6949 12.4478 16.0014L12.7853 16.3703L13.1228 16.7392C13.7277 16.1857 13.9903 15.3915 13.9903 14.4503H13.4903ZM12.7853 16.3703L12.4481 16.0011C12.1113 16.3086 11.5851 16.5003 10.7903 16.5003V17.0003V17.5003C11.7354 17.5003 12.5393 17.272 13.1224 16.7395L12.7853 16.3703ZM10.7903 17.0003V16.5003H8.81028V17.0003V17.5003H10.7903V17.0003ZM8.81028 17.0003H9.31028V15.8603H8.81028H8.31028V17.0003H8.81028ZM8.81028 15.8603V16.3603H10.9403V15.8603V15.3603H8.81028V15.8603ZM10.9403 15.8603V16.3603C11.4166 16.3603 11.8478 16.215 12.1859 15.8916L11.8403 15.5303L11.4947 15.169C11.3728 15.2856 11.204 15.3603 10.9403 15.3603V15.8603ZM11.8403 15.5303L12.1859 15.8916C12.5115 15.5801 12.6853 15.1858 12.6853 14.7353H12.1853H11.6853C11.6853 14.9048 11.629 15.0405 11.4947 15.169L11.8403 15.5303ZM12.1853 14.7353H12.6853V13.1753H12.1853H11.6853V14.7353H12.1853ZM12.1853 13.1753H12.6853C12.6853 12.7841 12.579 12.4156 12.319 12.1231L11.9453 12.4553L11.5716 12.7875C11.6316 12.855 11.6853 12.9665 11.6853 13.1753H12.1853ZM11.9453 12.4553L12.3377 12.1455C12.0673 11.8029 11.6715 11.6703 11.2553 11.6703V12.1703V12.6703C11.4591 12.6703 11.5233 12.7277 11.5528 12.7651L11.9453 12.4553ZM11.2553 12.1703V11.6703H10.9553V12.1703V12.6703H11.2553V12.1703ZM10.9553 12.1703V11.6703C10.3172 11.6703 9.87042 11.4883 9.55384 11.1718L9.20028 11.5253L8.84673 11.8789C9.39015 12.4223 10.1133 12.6703 10.9553 12.6703V12.1703ZM9.20028 11.5253L9.55788 11.1758C9.24733 10.8581 9.05528 10.3664 9.05528 9.6203H8.55528H8.05528C8.05528 10.5342 8.29324 11.3125 8.84269 11.8748L9.20028 11.5253ZM8.55528 9.6203H9.05528V9.0503H8.55528H8.05528V9.6203H8.55528ZM8.55528 9.0503H9.05528C9.05528 8.28755 9.25987 7.80905 9.58242 7.51455L9.24528 7.14531L8.90815 6.77606C8.31069 7.32156 8.05528 8.11306 8.05528 9.0503H8.55528ZM9.24528 7.14531L9.58279 7.51421C9.93143 7.19524 10.464 7.0003 11.2553 7.0003V6.5003V6.0003C10.3065 6.0003 9.49913 6.23537 8.90777 6.7764L9.24528 7.14531ZM11.2553 6.5003V7.0003H13.2503V6.5003V6.0003H11.2553V6.5003ZM13.2503 6.5003H12.7503V7.6403H13.2503H13.7503V6.5003H13.2503ZM13.2503 7.6403V7.1403H11.1053V7.6403V8.1403H13.2503V7.6403ZM11.1053 7.6403V7.1403C10.629 7.1403 10.1978 7.28558 9.85967 7.60898L10.2053 7.9703L10.5509 8.33163C10.6728 8.21503 10.8416 8.1403 11.1053 8.1403V7.6403ZM10.2053 7.9703L9.85967 7.60898C9.53403 7.92047 9.36028 8.31479 9.36028 8.7653H9.86028H10.3603C10.3603 8.59582 10.4165 8.46014 10.5509 8.33163L10.2053 7.9703ZM9.86028 8.7653H9.36028V9.9053H9.86028H10.3603V8.7653H9.86028ZM9.86028 9.9053H9.36028C9.36028 10.334 9.50318 10.7203 9.79821 11.0301L10.1603 10.6853L10.5224 10.3405C10.4174 10.2303 10.3603 10.0966 10.3603 9.9053H9.86028ZM10.1603 10.6853L9.80673 11.0389C10.1131 11.3452 10.5067 11.4853 10.9403 11.4853V10.9853V10.4853C10.7339 10.4853 10.6074 10.4254 10.5138 10.3318L10.1603 10.6853ZM10.9403 10.9853V11.4853H11.2403V10.9853V10.4853H10.9403V10.9853ZM11.2403 10.9853V11.4853C11.8504 11.4853 12.2552 11.6581 12.528 11.9449L12.8903 11.6003L13.2526 11.2557C12.7453 10.7225 12.0501 10.4853 11.2403 10.4853V10.9853ZM12.8903 11.6003L12.5324 11.9495C12.8073 12.2312 12.9903 12.7023 12.9903 13.4603H13.4903H13.9903C13.9903 12.5583 13.7733 11.7894 13.2482 11.2511L12.8903 11.6003ZM13.4903 13.4603H12.9903V14.4503H13.4903H13.9903V13.4603H13.4903ZM21.2521 17.0003H20.7521V17.5003H21.2521V17.0003ZM21.2521 7.5803H21.7521L20.7696 7.44895L21.2521 7.5803ZM19.6471 13.4753V13.9753H20.0291L20.1295 13.6067L19.6471 13.4753ZM18.4021 13.4753L17.9196 13.6067L18.02 13.9753H18.4021V13.4753ZM16.7971 7.5803L17.2795 7.44895L16.2971 7.5803H16.7971ZM16.7971 17.0003V17.5003H17.2971V17.0003H16.7971ZM15.5971 17.0003H15.0971V17.5003H15.5971V17.0003ZM15.5971 6.5003V6.0003H15.0971V6.5003H15.5971ZM17.7121 6.5003L18.1967 6.37713L18.1009 6.0003H17.7121V6.5003ZM19.0771 11.8703L18.5925 11.9935L19.562 11.9922L19.0771 11.8703ZM20.4271 6.5003V6.0003H20.0372L19.9422 6.3784L20.4271 6.5003ZM22.4971 6.5003H22.9971V6.0003H22.4971V6.5003ZM22.4971 17.0003V17.5003H22.9971V17.0003H22.4971ZM21.2521 17.0003H21.7521V7.5803H21.2521H20.7521V17.0003H21.2521ZM21.2521 7.5803L20.7696 7.44895L19.1646 13.344L19.6471 13.4753L20.1295 13.6067L21.7345 7.71166L21.2521 7.5803ZM19.6471 13.4753V12.9753H18.4021V13.4753V13.9753H19.6471V13.4753ZM18.4021 13.4753L18.8845 13.344L17.2795 7.44895L16.7971 7.5803L16.3146 7.71166L17.9196 13.6067L18.4021 13.4753ZM16.7971 7.5803H16.2971V17.0003H16.7971H17.2971V7.5803H16.7971ZM16.7971 17.0003V16.5003H15.5971V17.0003V17.5003H16.7971V17.0003ZM15.5971 17.0003H16.0971V6.5003H15.5971H15.0971V17.0003H15.5971ZM15.5971 6.5003V7.0003H17.7121V6.5003V6.0003H15.5971V6.5003ZM17.7121 6.5003L17.2275 6.62348L18.5925 11.9935L19.0771 11.8703L19.5617 11.7471L18.1967 6.37713L17.7121 6.5003ZM19.0771 11.8703L19.562 11.9922L20.912 6.62221L20.4271 6.5003L19.9422 6.3784L18.5922 11.7484L19.0771 11.8703ZM20.4271 6.5003V7.0003H22.4971V6.5003V6.0003H20.4271V6.5003ZM22.4971 6.5003H21.9971V17.0003H22.4971H22.9971V6.5003H22.4971ZM22.4971 17.0003V16.5003H21.2521V17.0003V17.5003H22.4971V17.0003Z" fill="url(#paint1_linear_716_1466)"/>
</g>
<defs>
<linearGradient id="paint0_linear_716_1466" x1="24.0003" y1="1.0003" x2="0.000300763" y2="24.0003" gradientUnits="userSpaceOnUse">
<stop stop-color="#30E8E8"/>
<stop offset="1" stop-color="#388A0F"/>
</linearGradient>
<linearGradient id="paint1_linear_716_1466" x1="24.0003" y1="1.0003" x2="0.000300763" y2="24.0003" gradientUnits="userSpaceOnUse">
<stop stop-color="#30E8E8"/>
<stop offset="1" stop-color="#388A0F"/>
</linearGradient>
<clipPath id="clip0_716_1466">
<rect width="23.9997" height="23.9997" fill="white"/>
</clipPath>
</defs>
</svg>
