<svg width="24" height="24" viewBox="0 0 24 24" fill="none" xmlns="http://www.w3.org/2000/svg">
<path d="M20.5858 0.585786C21.3668 -0.195262 22.6329 -0.195262 23.4139 0.585786C24.195 1.36683 24.195 2.63286 23.4139 3.41391L14.828 11.9998L23.4139 20.5858C24.195 21.3668 24.195 22.6329 23.4139 23.4139C22.6329 24.195 21.3668 24.195 20.5858 23.4139L11.9998 14.828L3.41391 23.4139C2.63286 24.195 1.36683 24.195 0.585786 23.4139C-0.195262 22.6329 -0.195262 21.3668 0.585786 20.5858L9.17172 11.9998L0.585786 3.41391C-0.195262 2.63286 -0.195262 1.36684 0.585786 0.585786C1.36684 -0.195262 2.63286 -0.195262 3.41391 0.585786L11.9998 9.17172L20.5858 0.585786Z" fill="url(#paint0_linear_639_1357)"/>
<defs>
<linearGradient id="paint0_linear_639_1357" x1="11.9998" y1="1.99985" x2="11.9998" y2="21.9998" gradientUnits="userSpaceOnUse">
<stop stop-color="#FF3333"/>
<stop offset="1" stop-color="#991F1F"/>
</linearGradient>
</defs>
</svg>
