<svg width="12" height="12" viewBox="0 0 12 12" fill="none" xmlns="http://www.w3.org/2000/svg">
<g clip-path="url(#clip0_784_422)">
<path d="M1 3V9C1 10.1046 1.89543 11 3 11H9C10.1046 11 11 10.1046 11 9V3" stroke="#3399FF" stroke-linecap="round"/>
<rect x="6" y="8" width="1.5" height="1.5" rx="0.75" fill="#CCCCCC"/>
<rect x="8" y="8" width="1.5" height="1.5" rx="0.75" fill="#CCCCCC"/>
<path d="M6.08031 3.38531C6.08031 3.38531 6.37078 3.29613 6.68663 3.34963L7.74903 3.97887C7.9936 4.26424 7.9936 4.62345 7.9936 4.62345C8.02417 5.22724 7.76432 5.94056 7.66749 6.27427C7.39999 7.10227 6.77075 7.45891 6.08031 7.47677L3.69588 7.4997C2 7.4997 1.68152 6.11557 2.51305 6.27427C3.69588 6.5 4.61804 4.81195 5.16575 4.09352C5.16575 4.09352 5.45871 3.60184 6.08031 3.38531Z" fill="#FFB02E"/>
<path d="M9 0.5C9.28742 0.665483 9.38629 1.03263 9.22081 1.32005L7.9111 3.60638L6.87023 3.00709L8.17994 0.720783C8.34547 0.433367 8.71258 0.334517 9 0.5Z" fill="#7D4533"/>
<path d="M7.9929 3.45685L6.95395 2.87C6.95395 2.87 6.72362 2.82052 6.61278 2.99626C6.44044 3.29137 6.64518 3.39203 6.64518 3.39203L7.69265 3.99936C7.83594 4.07954 8.25734 3.88677 7.9929 3.45685Z" fill="#9B9B9B"/>
<path d="M5.33699 3.822C5.25737 3.77902 5.15806 3.80872 5.11508 3.88829C5.07211 3.96791 5.1018 4.06727 5.18138 4.11024L7.84572 5.5485C7.92529 5.59147 8.02465 5.56177 8.06763 5.4822C8.1106 5.40258 8.0809 5.30323 8.00133 5.2603L5.33699 3.822ZM4.90003 4.37185C4.82028 4.32918 4.72106 4.35923 4.67839 4.43897C4.63568 4.51872 4.66577 4.61795 4.74552 4.66066L7.65526 6.21771C7.73501 6.26042 7.83423 6.23033 7.8769 6.15058C7.91957 6.07083 7.88953 5.97161 7.80978 5.92894L4.90003 4.37185Z" fill="#F8312F"/>
</g>
<defs>
<clipPath id="clip0_784_422">
<rect width="12" height="12" fill="white"/>
</clipPath>
</defs>
</svg>
