<svg width="12" height="12" viewBox="0 0 12 12" fill="none" xmlns="http://www.w3.org/2000/svg">
<g clip-path="url(#clip0_784_243)">
<path d="M2.5 11.25V9.60714C2.5 9.46907 2.61193 9.35714 2.75 9.35714H4.39286C4.53093 9.35714 4.64286 9.46907 4.64286 9.60714V11.25C4.64286 11.3881 4.53093 11.5 4.39286 11.5H2.75C2.61193 11.5 2.5 11.3881 2.5 11.25Z" fill="#D9D9D9" stroke="#3399FF" stroke-width="0.5" stroke-miterlimit="7.6613"/>
<path d="M5.92857 11.25V9.60714C5.92857 9.46907 6.0405 9.35714 6.17857 9.35714H7.82143C7.9595 9.35714 8.07143 9.46907 8.07143 9.60714V11.25C8.07143 11.3881 7.9595 11.5 7.82143 11.5H6.17857C6.0405 11.5 5.92857 11.3881 5.92857 11.25Z" fill="#D9D9D9" stroke="#3399FF" stroke-width="0.5" stroke-miterlimit="7.6613"/>
<path d="M9.35714 11.25V9.60714C9.35714 9.46907 9.46907 9.35714 9.60714 9.35714H11.25C11.3881 9.35714 11.5 9.46907 11.5 9.60714V11.25C11.5 11.3881 11.3881 11.5 11.25 11.5H9.60714C9.46907 11.5 9.35714 11.3881 9.35714 11.25Z" fill="#D9D9D9" stroke="#3399FF" stroke-width="0.5" stroke-miterlimit="7.6613"/>
<path d="M3.625 7.76786V6.125C3.625 5.98693 3.73693 5.875 3.875 5.875H5.51786C5.65593 5.875 5.76786 5.98693 5.76786 6.125V7.76786C5.76786 7.90593 5.65593 8.01786 5.51786 8.01786H3.875C3.73693 8.01786 3.625 7.90593 3.625 7.76786Z" fill="#D9D9D9" stroke="#3399FF" stroke-width="0.5" stroke-miterlimit="7.6613"/>
<path d="M7.64286 7.82143V6.17857C7.64286 6.0405 7.75479 5.92857 7.89286 5.92857H9.53571C9.67378 5.92857 9.78571 6.0405 9.78571 6.17857V7.82143C9.78571 7.9595 9.67379 8.07143 9.53571 8.07143H7.89286C7.75479 8.07143 7.64286 7.9595 7.64286 7.82143Z" fill="#D9D9D9" stroke="#3399FF" stroke-width="0.5" stroke-miterlimit="7.6613"/>
<path d="M5.92857 4.39286V2.75C5.92857 2.61193 6.0405 2.5 6.17857 2.5H7.82143C7.9595 2.5 8.07143 2.61193 8.07143 2.75V4.39286C8.07143 4.53093 7.9595 4.64286 7.82143 4.64286H6.17857C6.0405 4.64286 5.92857 4.53093 5.92857 4.39286Z" fill="#D9D9D9" stroke="#3399FF" stroke-width="0.5" stroke-miterlimit="7.6613"/>
<path d="M1.5 -2.5C1.5 -2.5 4.69974 0.182878 5 2.5C5.23913 4.34537 3.71429 7.14286 3.71429 7.14286" stroke="#999999" stroke-width="1.5" stroke-miterlimit="7.6613" stroke-linecap="round"/>
<path d="M3.5 4C5.433 4 7 5.567 7 7.5C7 9.433 5.433 11 3.5 11C1.567 11 0 9.433 0 7.5C0 5.567 1.567 4 3.5 4Z" fill="#0F0F0F" stroke="url(#paint0_linear_784_243)" stroke-width="0.2" stroke-miterlimit="7.6613"/>
</g>
<defs>
<linearGradient id="paint0_linear_784_243" x1="3.31579" y1="3.63158" x2="3.31579" y2="11" gradientUnits="userSpaceOnUse">
<stop stop-color="#999999"/>
<stop offset="1" stop-color="#5C5C5C"/>
</linearGradient>
<clipPath id="clip0_784_243">
<rect width="12" height="12" fill="white"/>
</clipPath>
</defs>
</svg>
