<svg width="581" height="164" viewBox="0 0 581 164" fill="none" xmlns="http://www.w3.org/2000/svg">
<g filter="url(#filter0_f_654_1543)">
<path d="M254.137 112V41.664L242.153 85.68H232.857L220.873 41.664V112H211.913V33.6H227.705L237.897 73.696L247.977 33.6H263.433V112H254.137ZM289.179 112V103.824H297.019V41.776H289.179V33.6H314.603V41.776H306.763V103.824H314.603V112H289.179ZM379.718 63.84C379.718 69.888 378.113 74.368 374.902 77.28C371.692 80.1173 366.95 81.536 360.678 81.536H350.15V112H340.406V33.6H360.454C366.801 33.6 371.58 35.0187 374.79 37.856C378.076 40.6187 379.718 45.024 379.718 51.072V63.84ZM369.974 50.064C369.974 47.2267 369.302 45.1733 367.958 43.904C366.689 42.6347 364.636 42 361.798 42H350.15V73.136H361.798C364.636 73.136 366.689 72.5013 367.958 71.232C369.302 69.888 369.974 67.7973 369.974 64.96V50.064ZM440.11 92.96C440.11 99.3067 438.355 104.085 434.846 107.296C431.411 110.432 426.446 112 419.95 112H405.166V103.488H421.07C423.833 103.488 426.073 102.667 427.79 101.024C429.507 99.3813 430.366 97.4027 430.366 95.088V83.44C430.366 81.2 429.769 79.408 428.574 78.064C427.454 76.6453 425.737 75.936 423.422 75.936H421.182C415.657 75.936 411.289 74.3307 408.078 71.12C404.867 67.8347 403.262 63.0933 403.262 56.896V52.64C403.262 46.2933 404.979 41.552 408.414 38.416C411.923 35.2053 416.926 33.6 423.422 33.6H438.318V42.112H422.302C419.539 42.112 417.299 42.9333 415.582 44.576C413.865 46.2187 413.006 48.1973 413.006 50.512V59.024C413.006 61.3387 413.753 63.28 415.246 64.848C416.739 66.3413 418.681 67.088 421.07 67.088H423.31C428.611 67.088 432.718 68.6187 435.63 71.68C438.617 74.7413 440.11 79.3707 440.11 85.568V92.96ZM484.401 112C477.83 112 473.014 110.619 469.953 107.856C466.891 105.019 465.361 100.427 465.361 94.08V73.92C465.361 67.4987 466.742 62.9067 469.505 60.144C472.267 57.3813 476.859 56 483.281 56H486.305C491.606 56 495.601 57.4933 498.289 60.48C501.051 63.392 502.433 67.6853 502.433 73.36V87.92H474.881V96.32C474.881 98.6347 475.59 100.427 477.009 101.696C478.427 102.965 480.518 103.6 483.281 103.6H498.849V112H484.401ZM493.137 79.52V71.12C493.137 69.1787 492.502 67.5733 491.233 66.304C489.963 65.0347 488.358 64.4 486.417 64.4H482.161C479.473 64.4 477.569 65.0347 476.449 66.304C475.403 67.4987 474.881 69.2907 474.881 71.68V79.52H493.137ZM529.853 56H538.813V59.024C541.277 57.008 544.263 56 547.773 56H555.949V64.96H546.653C544.189 64.96 542.359 65.7813 541.165 67.424C539.97 69.0667 539.373 70.672 539.373 72.24V112H529.853V56Z" fill="url(#paint0_linear_654_1543)" fill-opacity="0.75"/>
</g>
<g filter="url(#filter1_d_654_1543)">
<path d="M254.137 112V41.664L242.153 85.68H232.857L220.873 41.664V112H211.913V33.6H227.705L237.897 73.696L247.977 33.6H263.433V112H254.137ZM289.179 112V103.824H297.019V41.776H289.179V33.6H314.603V41.776H306.763V103.824H314.603V112H289.179ZM379.718 63.84C379.718 69.888 378.113 74.368 374.902 77.28C371.692 80.1173 366.95 81.536 360.678 81.536H350.15V112H340.406V33.6H360.454C366.801 33.6 371.58 35.0187 374.79 37.856C378.076 40.6187 379.718 45.024 379.718 51.072V63.84ZM369.974 50.064C369.974 47.2267 369.302 45.1733 367.958 43.904C366.689 42.6347 364.636 42 361.798 42H350.15V73.136H361.798C364.636 73.136 366.689 72.5013 367.958 71.232C369.302 69.888 369.974 67.7973 369.974 64.96V50.064ZM440.11 92.96C440.11 99.3067 438.355 104.085 434.846 107.296C431.411 110.432 426.446 112 419.95 112H405.166V103.488H421.07C423.833 103.488 426.073 102.667 427.79 101.024C429.507 99.3813 430.366 97.4027 430.366 95.088V83.44C430.366 81.2 429.769 79.408 428.574 78.064C427.454 76.6453 425.737 75.936 423.422 75.936H421.182C415.657 75.936 411.289 74.3307 408.078 71.12C404.867 67.8347 403.262 63.0933 403.262 56.896V52.64C403.262 46.2933 404.979 41.552 408.414 38.416C411.923 35.2053 416.926 33.6 423.422 33.6H438.318V42.112H422.302C419.539 42.112 417.299 42.9333 415.582 44.576C413.865 46.2187 413.006 48.1973 413.006 50.512V59.024C413.006 61.3387 413.753 63.28 415.246 64.848C416.739 66.3413 418.681 67.088 421.07 67.088H423.31C428.611 67.088 432.718 68.6187 435.63 71.68C438.617 74.7413 440.11 79.3707 440.11 85.568V92.96ZM484.401 112C477.83 112 473.014 110.619 469.953 107.856C466.891 105.019 465.361 100.427 465.361 94.08V73.92C465.361 67.4987 466.742 62.9067 469.505 60.144C472.267 57.3813 476.859 56 483.281 56H486.305C491.606 56 495.601 57.4933 498.289 60.48C501.051 63.392 502.433 67.6853 502.433 73.36V87.92H474.881V96.32C474.881 98.6347 475.59 100.427 477.009 101.696C478.427 102.965 480.518 103.6 483.281 103.6H498.849V112H484.401ZM493.137 79.52V71.12C493.137 69.1787 492.502 67.5733 491.233 66.304C489.963 65.0347 488.358 64.4 486.417 64.4H482.161C479.473 64.4 477.569 65.0347 476.449 66.304C475.403 67.4987 474.881 69.2907 474.881 71.68V79.52H493.137ZM529.853 56H538.813V59.024C541.277 57.008 544.263 56 547.773 56H555.949V64.96H546.653C544.189 64.96 542.359 65.7813 541.165 67.424C539.97 69.0667 539.373 70.672 539.373 72.24V112H529.853V56Z" fill="white"/>
</g>
<g filter="url(#filter2_f_654_1543)">
<path d="M26.7574 60.7385C22.7457 54.4976 26.4236 44.3927 33.5083 42.1906L113.744 17.2515C118.564 15.7535 123.79 17.6558 126.519 21.9012L172.846 93.9691C176.857 100.21 173.179 110.315 166.095 112.517L85.8588 137.456C81.0395 138.954 75.8129 137.052 73.0839 132.806L26.7574 60.7385Z" fill="url(#paint1_linear_654_1543)"/>
<path d="M113.299 15.8196C118.762 14.1215 124.687 16.2779 127.781 21.0905L174.108 93.1584C176.427 96.7666 176.462 101.365 175.041 105.271C173.619 109.176 170.636 112.677 166.54 113.95L86.3037 138.888C80.8405 140.586 74.9155 138.43 71.822 133.618L25.4952 61.5497C23.1758 57.9414 23.1409 53.3419 24.5623 49.4366C25.9837 45.5315 28.9668 42.0313 33.0627 40.758L113.299 15.8196Z" stroke="url(#paint2_linear_654_1543)" stroke-width="3" stroke-miterlimit="16" stroke-linecap="round"/>
</g>
<g filter="url(#filter3_d_654_1543)">
<path d="M26.6548 60.665C22.6436 54.412 26.323 44.2862 33.4085 42.0787L113.651 17.0786C118.471 15.5769 123.698 17.4824 126.426 21.7359L172.746 93.9435C176.757 100.196 173.077 110.322 165.992 112.53L85.7489 137.53C80.9291 139.032 75.7025 137.126 72.974 132.873L26.6548 60.665Z" fill="url(#paint3_linear_654_1543)"/>
</g>
<path d="M28.7851 54.8021C24.7648 48.5744 27.7858 40.2604 34.862 38.0783L115.001 13.3648C119.814 11.8804 125.041 13.7859 127.776 18.0222L174.201 89.9374C178.222 96.1651 175.2 104.479 168.124 106.661C136.828 116.312 119.282 121.724 87.9854 131.375C83.1719 132.859 77.9453 130.954 75.2105 126.717L28.7851 54.8021Z" fill="url(#paint4_linear_654_1543)"/>
<defs>
<filter id="filter0_f_654_1543" x="186.913" y="8.59999" width="394.036" height="128.4" filterUnits="userSpaceOnUse" color-interpolation-filters="sRGB">
<feFlood flood-opacity="0" result="BackgroundImageFix"/>
<feBlend mode="normal" in="SourceGraphic" in2="BackgroundImageFix" result="shape"/>
<feGaussianBlur stdDeviation="12.5" result="effect1_foregroundBlur_654_1543"/>
</filter>
<filter id="filter1_d_654_1543" x="207.913" y="33.6" width="352.036" height="86.4" filterUnits="userSpaceOnUse" color-interpolation-filters="sRGB">
<feFlood flood-opacity="0" result="BackgroundImageFix"/>
<feColorMatrix in="SourceAlpha" type="matrix" values="0 0 0 0 0 0 0 0 0 0 0 0 0 0 0 0 0 0 127 0" result="hardAlpha"/>
<feOffset dy="4"/>
<feGaussianBlur stdDeviation="2"/>
<feComposite in2="hardAlpha" operator="out"/>
<feColorMatrix type="matrix" values="0 0 0 0 0 0 0 0 0 0 0 0 0 0 0 0 0 0 0.25 0"/>
<feBlend mode="normal" in2="BackgroundImageFix" result="effect1_dropShadow_654_1543"/>
<feBlend mode="normal" in="SourceGraphic" in2="effect1_dropShadow_654_1543" result="shape"/>
</filter>
<filter id="filter2_f_654_1543" x="12.1027" y="3.74437" width="175.398" height="147.219" filterUnits="userSpaceOnUse" color-interpolation-filters="sRGB">
<feFlood flood-opacity="0" result="BackgroundImageFix"/>
<feBlend mode="normal" in="SourceGraphic" in2="BackgroundImageFix" result="shape"/>
<feGaussianBlur stdDeviation="5" result="effect1_foregroundBlur_654_1543"/>
</filter>
<filter id="filter3_d_654_1543" x="0" y="11.5702" width="179.4" height="151.468" filterUnits="userSpaceOnUse" color-interpolation-filters="sRGB">
<feFlood flood-opacity="0" result="BackgroundImageFix"/>
<feColorMatrix in="SourceAlpha" type="matrix" values="0 0 0 0 0 0 0 0 0 0 0 0 0 0 0 0 0 0 127 0" result="hardAlpha"/>
<feOffset dx="-10" dy="10"/>
<feGaussianBlur stdDeviation="7.5"/>
<feComposite in2="hardAlpha" operator="out"/>
<feColorMatrix type="matrix" values="0 0 0 0 0 0 0 0 0 0 0 0 0 0 0 0 0 0 0.5 0"/>
<feBlend mode="normal" in2="BackgroundImageFix" result="effect1_dropShadow_654_1543"/>
<feBlend mode="normal" in="SourceGraphic" in2="effect1_dropShadow_654_1543" result="shape"/>
</filter>
<linearGradient id="paint0_linear_654_1543" x1="380.393" y1="13" x2="380.393" y2="139" gradientUnits="userSpaceOnUse">
<stop stop-color="#5838FA"/>
<stop offset="1" stop-color="#034AC9"/>
</linearGradient>
<linearGradient id="paint1_linear_654_1543" x1="4.52444" y1="109.375" x2="195.079" y2="45.3329" gradientUnits="userSpaceOnUse">
<stop stop-color="#034AC9"/>
<stop offset="1" stop-color="#5838FA"/>
</linearGradient>
<linearGradient id="paint2_linear_654_1543" x1="194.845" y1="44.6317" x2="4.92118" y2="110.13" gradientUnits="userSpaceOnUse">
<stop offset="0.2" stop-color="#5838FA"/>
<stop offset="0.8" stop-color="#034AC9"/>
</linearGradient>
<linearGradient id="paint3_linear_654_1543" x1="152.248" y1="163.821" x2="46.9222" y2="-8.77278" gradientUnits="userSpaceOnUse">
<stop stop-color="#333333"/>
<stop offset="1" stop-color="#666666"/>
</linearGradient>
<linearGradient id="paint4_linear_654_1543" x1="196.465" y1="40.6352" x2="29.3089" y2="142.229" gradientUnits="userSpaceOnUse">
<stop stop-color="white"/>
<stop offset="1" stop-color="#333333"/>
</linearGradient>
</defs>
</svg>
