<svg width="24" height="24" viewBox="0 0 24 24" fill="none" xmlns="http://www.w3.org/2000/svg">
<path d="M17.667 19C17.667 19.5523 17.2193 20 16.667 20H8.00031C7.44802 20 7.00031 19.5523 7.00031 19V5C7.00031 4.44772 7.44802 4 8.00031 4H11.9194C12.1846 4 12.439 4.10536 12.6265 4.29289L17.3741 9.04044C17.5616 9.22798 17.667 9.48233 17.667 9.74755V19Z" fill="url(#paint0_linear_665_1426)"/>
<path d="M12.3336 4.09102C12.4414 4.14015 12.5412 4.20777 12.6266 4.29317L17.3737 9.04024C17.459 9.12558 17.5267 9.22546 17.5758 9.33321H13.3336C12.7813 9.33319 12.3336 8.88548 12.3336 8.33321V4.09102Z" fill="url(#paint1_linear_665_1426)"/>
<path d="M10.3403 16.3333L10.1503 15.4483H9.1753L8.9803 16.3333H8.5353L9.3803 12.8333H9.9553L10.7853 16.3333H10.3403ZM9.6603 13.1633L9.2553 15.0733H10.0703L9.6603 13.1633ZM12.8303 15.4833C12.8303 15.7667 12.752 15.98 12.5953 16.1233C12.442 16.2633 12.2203 16.3333 11.9303 16.3333H11.2703V15.9533H11.9803C12.1036 15.9533 12.2036 15.9167 12.2803 15.8433C12.357 15.77 12.3953 15.6817 12.3953 15.5783V15.0583C12.3953 14.9583 12.3686 14.8783 12.3153 14.8183C12.2653 14.755 12.1886 14.7233 12.0853 14.7233H11.9853C11.7386 14.7233 11.5436 14.6517 11.4003 14.5083C11.257 14.3617 11.1853 14.15 11.1853 13.8733V13.6833C11.1853 13.4 11.262 13.1883 11.4153 13.0483C11.572 12.905 11.7953 12.8333 12.0853 12.8333H12.7503V13.2133H12.0353C11.912 13.2133 11.812 13.25 11.7353 13.3233C11.6586 13.3967 11.6203 13.485 11.6203 13.5883V13.9683C11.6203 14.0717 11.6536 14.1583 11.7203 14.2283C11.787 14.295 11.8736 14.3283 11.9803 14.3283H12.0803C12.317 14.3283 12.5003 14.3967 12.6303 14.5333C12.7636 14.67 12.8303 14.8767 12.8303 15.1533V15.4833ZM15.4176 16.3333V13.1933L14.8826 15.1583H14.4676L13.9326 13.1933V16.3333H13.5326V12.8333H14.2376L14.6926 14.6233L15.1426 12.8333H15.8326V16.3333H15.4176Z" fill="url(#paint2_linear_665_1426)"/>
<defs>
<linearGradient id="paint0_linear_665_1426" x1="6.92338" y1="20.9667" x2="21.0689" y2="7.5745" gradientUnits="userSpaceOnUse">
<stop stop-color="#034AC9"/>
<stop offset="1" stop-color="#5838FA"/>
</linearGradient>
<linearGradient id="paint1_linear_665_1426" x1="19.8085" y1="1.85837" x2="12.3336" y2="9.33321" gradientUnits="userSpaceOnUse">
<stop stop-color="#034AC9"/>
<stop offset="0.8" stop-color="#5838FA"/>
</linearGradient>
<linearGradient id="paint2_linear_665_1426" x1="12.3336" y1="9.33333" x2="12.3336" y2="20" gradientUnits="userSpaceOnUse">
<stop offset="0.2" stop-color="white"/>
<stop offset="0.8" stop-color="#999999"/>
</linearGradient>
</defs>
</svg>
