<svg width="24" height="24" viewBox="0 0 24 24" fill="none" xmlns="http://www.w3.org/2000/svg">
<path d="M24 19C24 19.5523 23.5523 20 23 20H1C0.447715 20 0 19.5523 0 19V5.74193H6.91934C7.1029 5.74193 7.28292 5.69141 7.43967 5.59589L9 4.64516H23C23.5523 4.64516 24 5.09287 24 5.64516V19Z" fill="url(#paint0_linear_716_1462)"/>
<path d="M6.42372 3C6.92309 3 7.4044 3.18682 7.77301 3.52372L9 4.64516L7.43967 5.59589C7.28292 5.69141 7.1029 5.74193 6.91934 5.74193H0V4C0 3.44772 0.447716 3 1 3H6.42372Z" fill="url(#paint1_linear_716_1462)"/>
<path d="M24 19C24 19.5523 23.5523 20 23 20H0.999999C0.447715 20 -7.15256e-07 19.5523 -7.15256e-07 19V6.74196C-7.15256e-07 6.18967 0.447715 5.74196 1 5.74196H6.63868C7.0058 5.74196 7.36584 5.64091 7.67935 5.44988L8.76032 4.79122C8.91708 4.69571 9.0971 4.64519 9.28066 4.64519H23C23.5523 4.64519 24 5.0929 24 5.64519V19Z" fill="url(#paint2_linear_716_1462)"/>
<defs>
<linearGradient id="paint0_linear_716_1462" x1="12" y1="3" x2="12" y2="20" gradientUnits="userSpaceOnUse">
<stop stop-color="#CF9217"/>
<stop offset="1" stop-color="#2E2005"/>
</linearGradient>
<linearGradient id="paint1_linear_716_1462" x1="12" y1="3" x2="12" y2="20" gradientUnits="userSpaceOnUse">
<stop stop-color="#CF9217"/>
<stop offset="1" stop-color="#2E2005"/>
</linearGradient>
<linearGradient id="paint2_linear_716_1462" x1="12" y1="4.64519" x2="12" y2="20" gradientUnits="userSpaceOnUse">
<stop stop-color="#E3A019"/>
<stop offset="1" stop-color="#7D580E"/>
</linearGradient>
</defs>
</svg>
