<svg width="24" height="24" viewBox="0 0 24 24" fill="none" xmlns="http://www.w3.org/2000/svg">
<path d="M23.0938 19.5938C23.0938 20.146 22.646 20.5938 22.0937 20.5938H2.09375C1.54146 20.5938 1.09375 20.146 1.09375 19.5938V6.75504H7.39916C7.59147 6.75504 7.77969 6.69959 7.94129 6.59534L9.34375 5.69053H22.0938C22.646 5.69053 23.0938 6.13824 23.0938 6.69053V19.5938Z" fill="url(#paint0_linear_665_1383)"/>
<path d="M6.88446 4.09375C7.40354 4.09375 7.90229 4.29556 8.2753 4.65655L9.34375 5.69053L7.94129 6.59534C7.77969 6.69959 7.59147 6.75504 7.39916 6.75504H1.09375V5.09375C1.09375 4.54147 1.54146 4.09375 2.09375 4.09375H6.88446Z" fill="url(#paint1_linear_665_1383)"/>
<path d="M23.0938 19.5938C23.0938 20.146 22.646 20.5938 22.0937 20.5938H2.09375C1.54147 20.5938 1.09375 20.146 1.09375 19.5938V7.75504C1.09375 7.20275 1.54146 6.75504 2.09375 6.75504H7.10457C7.48919 6.75504 7.86564 6.64414 8.18883 6.43563L9.09621 5.85022C9.2578 5.74597 9.44603 5.69052 9.63834 5.69052H22.0938C22.646 5.69052 23.0938 6.13824 23.0938 6.69052V19.5938Z" fill="url(#paint2_linear_665_1383)"/>
<defs>
<linearGradient id="paint0_linear_665_1383" x1="12.0938" y1="4.09375" x2="12.0938" y2="20.5938" gradientUnits="userSpaceOnUse">
<stop stop-color="#CF9217"/>
<stop offset="1" stop-color="#2E2005"/>
</linearGradient>
<linearGradient id="paint1_linear_665_1383" x1="12.0938" y1="4.09375" x2="12.0938" y2="20.5938" gradientUnits="userSpaceOnUse">
<stop stop-color="#CF9217"/>
<stop offset="1" stop-color="#2E2005"/>
</linearGradient>
<linearGradient id="paint2_linear_665_1383" x1="12.0938" y1="5.69052" x2="12.0938" y2="20.5938" gradientUnits="userSpaceOnUse">
<stop stop-color="#E3A019"/>
<stop offset="1" stop-color="#7D580E"/>
</linearGradient>
</defs>
</svg>
