<svg width="24" height="24" viewBox="0 0 24 24" fill="none" xmlns="http://www.w3.org/2000/svg">
<path d="M17.0006 19C17.0006 19.5523 16.5529 20 16.0006 20H8.00061C7.44833 20 7.00061 19.5523 7.00061 19V5C7.00061 4.44772 7.44833 4 8.00061 4H11.5674C11.8438 4 12.1079 4.11441 12.2969 4.31606L16.7301 9.04484C16.9039 9.23019 17.0006 9.47472 17.0006 9.72878V19Z" fill="url(#paint0_linear_666_1431)"/>
<path d="M12.0006 4.09981C12.1105 4.15269 12.2113 4.22487 12.2965 4.31563L16.7301 9.04512C16.8098 9.13017 16.8722 9.22804 16.9176 9.33321H13.0006C12.4483 9.33321 12.0006 8.88549 12.0006 8.33321V4.09981Z" fill="url(#paint1_linear_666_1431)"/>
<path d="M8.6588 13.9933C8.6588 14.104 8.62813 14.1887 8.5668 14.2473C8.5068 14.3047 8.42546 14.3333 8.3228 14.3333H8.3028C8.20013 14.3333 8.11813 14.3047 8.0568 14.2473C7.9968 14.1887 7.9668 14.104 7.9668 13.9933V13.2733C7.9668 13.1613 7.9968 13.0767 8.0568 13.0193C8.1168 12.962 8.1988 12.9333 8.3028 12.9333H8.3228C8.4268 12.9333 8.5088 12.962 8.5688 13.0193C8.6288 13.0767 8.6588 13.1613 8.6588 13.2733V13.9933ZM8.4888 13.2353C8.4888 13.194 8.4728 13.1587 8.4408 13.1293C8.41013 13.0987 8.3708 13.0833 8.3228 13.0833H8.3028C8.2548 13.0833 8.2148 13.0987 8.1828 13.1293C8.15213 13.1587 8.1368 13.194 8.1368 13.2353V14.0313C8.1368 14.0727 8.15213 14.1087 8.1828 14.1393C8.2148 14.1687 8.2548 14.1833 8.3028 14.1833H8.3228C8.3708 14.1833 8.41013 14.1687 8.4408 14.1393C8.4728 14.1087 8.4888 14.0727 8.4888 14.0313V13.2353ZM9.06625 14.3333V14.1833H9.30825V13.0913L9.04625 13.1953V13.0333L9.28825 12.9333H9.47825V14.1833H9.67625V14.3333H9.06625ZM10.1057 14.3333V14.1833H10.3477V13.0913L10.0857 13.1953V13.0333L10.3277 12.9333H10.5177V14.1833H10.7157V14.3333H10.1057ZM11.7772 13.9933C11.7772 14.104 11.7465 14.1887 11.6852 14.2473C11.6252 14.3047 11.5438 14.3333 11.4412 14.3333H11.4212C11.3185 14.3333 11.2365 14.3047 11.1752 14.2473C11.1152 14.1887 11.0852 14.104 11.0852 13.9933V13.2733C11.0852 13.1613 11.1152 13.0767 11.1752 13.0193C11.2352 12.962 11.3172 12.9333 11.4212 12.9333H11.4412C11.5452 12.9333 11.6272 12.962 11.6872 13.0193C11.7472 13.0767 11.7772 13.1613 11.7772 13.2733V13.9933ZM11.6072 13.2353C11.6072 13.194 11.5912 13.1587 11.5592 13.1293C11.5285 13.0987 11.4892 13.0833 11.4412 13.0833H11.4212C11.3732 13.0833 11.3332 13.0987 11.3012 13.1293C11.2705 13.1587 11.2552 13.194 11.2552 13.2353V14.0313C11.2552 14.0727 11.2705 14.1087 11.3012 14.1393C11.3332 14.1687 11.3732 14.1833 11.4212 14.1833H11.4412C11.4892 14.1833 11.5285 14.1687 11.5592 14.1393C11.5912 14.1087 11.6072 14.0727 11.6072 14.0313V13.2353ZM12.1846 14.3333V14.1833H12.4266V13.0913L12.1646 13.1953V13.0333L12.4066 12.9333H12.5966V14.1833H12.7946V14.3333H12.1846ZM13.2241 14.3333V14.1833H13.4661V13.0913L13.2041 13.1953V13.0333L13.4461 12.9333H13.6361V14.1833H13.8341V14.3333H13.2241ZM14.2635 14.3333V14.1833H14.5055V13.0913L14.2435 13.1953V13.0333L14.4855 12.9333H14.6755V14.1833H14.8735V14.3333H14.2635ZM15.303 14.3333V14.1833H15.545V13.0913L15.283 13.1953V13.0333L15.525 12.9333H15.715V14.1833H15.913V14.3333H15.303ZM8.7088 15.9933C8.7088 16.104 8.67813 16.1887 8.6168 16.2473C8.5568 16.3047 8.47546 16.3333 8.3728 16.3333H8.3528C8.25013 16.3333 8.16813 16.3047 8.1068 16.2473C8.0468 16.1887 8.0168 16.104 8.0168 15.9933V15.2733C8.0168 15.1613 8.0468 15.0767 8.1068 15.0193C8.1668 14.962 8.2488 14.9333 8.3528 14.9333H8.3728C8.4768 14.9333 8.5588 14.962 8.6188 15.0193C8.6788 15.0767 8.7088 15.1613 8.7088 15.2733V15.9933ZM8.5388 15.2353C8.5388 15.194 8.5228 15.1587 8.4908 15.1293C8.46013 15.0987 8.4208 15.0833 8.3728 15.0833H8.3528C8.3048 15.0833 8.2648 15.0987 8.2328 15.1293C8.20213 15.1587 8.1868 15.194 8.1868 15.2353V16.0313C8.1868 16.0727 8.20213 16.1087 8.2328 16.1393C8.2648 16.1687 8.3048 16.1833 8.3528 16.1833H8.3728C8.4208 16.1833 8.46013 16.1687 8.4908 16.1393C8.5228 16.1087 8.5388 16.0727 8.5388 16.0313V15.2353ZM9.11625 16.3333V16.1833H9.35825V15.0913L9.09625 15.1953V15.0333L9.33825 14.9333H9.52825V16.1833H9.72625V16.3333H9.11625ZM10.1557 16.3333V16.1833H10.3977V15.0913L10.1357 15.1953V15.0333L10.3777 14.9333H10.5677V16.1833H10.7657V16.3333H10.1557ZM11.8272 15.9933C11.8272 16.104 11.7965 16.1887 11.7352 16.2473C11.6752 16.3047 11.5938 16.3333 11.4912 16.3333H11.4712C11.3685 16.3333 11.2865 16.3047 11.2252 16.2473C11.1652 16.1887 11.1352 16.104 11.1352 15.9933V15.2733C11.1352 15.1613 11.1652 15.0767 11.2252 15.0193C11.2852 14.962 11.3672 14.9333 11.4712 14.9333H11.4912C11.5952 14.9333 11.6772 14.962 11.7372 15.0193C11.7972 15.0767 11.8272 15.1613 11.8272 15.2733V15.9933ZM11.6572 15.2353C11.6572 15.194 11.6412 15.1587 11.6092 15.1293C11.5785 15.0987 11.5392 15.0833 11.4912 15.0833H11.4712C11.4232 15.0833 11.3832 15.0987 11.3512 15.1293C11.3205 15.1587 11.3052 15.194 11.3052 15.2353V16.0313C11.3052 16.0727 11.3205 16.1087 11.3512 16.1393C11.3832 16.1687 11.4232 16.1833 11.4712 16.1833H11.4912C11.5392 16.1833 11.5785 16.1687 11.6092 16.1393C11.6412 16.1087 11.6572 16.0727 11.6572 16.0313V15.2353ZM12.8666 15.9933C12.8666 16.104 12.8359 16.1887 12.7746 16.2473C12.7146 16.3047 12.6333 16.3333 12.5306 16.3333H12.5106C12.4079 16.3333 12.3259 16.3047 12.2646 16.2473C12.2046 16.1887 12.1746 16.104 12.1746 15.9933V15.2733C12.1746 15.1613 12.2046 15.0767 12.2646 15.0193C12.3246 14.962 12.4066 14.9333 12.5106 14.9333H12.5306C12.6346 14.9333 12.7166 14.962 12.7766 15.0193C12.8366 15.0767 12.8666 15.1613 12.8666 15.2733V15.9933ZM12.6966 15.2353C12.6966 15.194 12.6806 15.1587 12.6486 15.1293C12.6179 15.0987 12.5786 15.0833 12.5306 15.0833H12.5106C12.4626 15.0833 12.4226 15.0987 12.3906 15.1293C12.3599 15.1587 12.3446 15.194 12.3446 15.2353V16.0313C12.3446 16.0727 12.3599 16.1087 12.3906 16.1393C12.4226 16.1687 12.4626 16.1833 12.5106 16.1833H12.5306C12.5786 16.1833 12.6179 16.1687 12.6486 16.1393C12.6806 16.1087 12.6966 16.0727 12.6966 16.0313V15.2353ZM13.9061 15.9933C13.9061 16.104 13.8754 16.1887 13.8141 16.2473C13.7541 16.3047 13.6727 16.3333 13.5701 16.3333H13.5501C13.4474 16.3333 13.3654 16.3047 13.3041 16.2473C13.2441 16.1887 13.2141 16.104 13.2141 15.9933V15.2733C13.2141 15.1613 13.2441 15.0767 13.3041 15.0193C13.3641 14.962 13.4461 14.9333 13.5501 14.9333H13.5701C13.6741 14.9333 13.7561 14.962 13.8161 15.0193C13.8761 15.0767 13.9061 15.1613 13.9061 15.2733V15.9933ZM13.7361 15.2353C13.7361 15.194 13.7201 15.1587 13.6881 15.1293C13.6574 15.0987 13.6181 15.0833 13.5701 15.0833H13.5501C13.5021 15.0833 13.4621 15.0987 13.4301 15.1293C13.3994 15.1587 13.3841 15.194 13.3841 15.2353V16.0313C13.3841 16.0727 13.3994 16.1087 13.4301 16.1393C13.4621 16.1687 13.5021 16.1833 13.5501 16.1833H13.5701C13.6181 16.1833 13.6574 16.1687 13.6881 16.1393C13.7201 16.1087 13.7361 16.0727 13.7361 16.0313V15.2353ZM14.3135 16.3333V16.1833H14.5555V15.0913L14.2935 15.1953V15.0333L14.5355 14.9333H14.7255V16.1833H14.9235V16.3333H14.3135ZM15.985 15.9933C15.985 16.104 15.9543 16.1887 15.893 16.2473C15.833 16.3047 15.7516 16.3333 15.649 16.3333H15.629C15.5263 16.3333 15.4443 16.3047 15.383 16.2473C15.323 16.1887 15.293 16.104 15.293 15.9933V15.2733C15.293 15.1613 15.323 15.0767 15.383 15.0193C15.443 14.962 15.525 14.9333 15.629 14.9333H15.649C15.753 14.9333 15.835 14.962 15.895 15.0193C15.955 15.0767 15.985 15.1613 15.985 15.2733V15.9933ZM15.815 15.2353C15.815 15.194 15.799 15.1587 15.767 15.1293C15.7363 15.0987 15.697 15.0833 15.649 15.0833H15.629C15.581 15.0833 15.541 15.0987 15.509 15.1293C15.4783 15.1587 15.463 15.194 15.463 15.2353V16.0313C15.463 16.0727 15.4783 16.1087 15.509 16.1393C15.541 16.1687 15.581 16.1833 15.629 16.1833H15.649C15.697 16.1833 15.7363 16.1687 15.767 16.1393C15.799 16.1087 15.815 16.0727 15.815 16.0313V15.2353Z" fill="url(#paint2_linear_666_1431)"/>
<defs>
<linearGradient id="paint0_linear_666_1431" x1="6.92849" y1="20.9667" x2="20.995" y2="8.4816" gradientUnits="userSpaceOnUse">
<stop stop-color="#034AC9"/>
<stop offset="1" stop-color="#5838FA"/>
</linearGradient>
<linearGradient id="paint1_linear_666_1431" x1="19.0118" y1="1.8709" x2="11.5639" y2="8.86843" gradientUnits="userSpaceOnUse">
<stop stop-color="#034AC9"/>
<stop offset="0.8" stop-color="#5838FA"/>
</linearGradient>
<linearGradient id="paint2_linear_666_1431" x1="12.0006" y1="9.33333" x2="12.0006" y2="20" gradientUnits="userSpaceOnUse">
<stop offset="0.2" stop-color="white"/>
<stop offset="0.8" stop-color="#999999"/>
</linearGradient>
</defs>
</svg>
