<svg width="24" height="24" viewBox="0 0 24 24" fill="none" xmlns="http://www.w3.org/2000/svg">
<g clip-path="url(#clip0_716_1469)">
<path d="M5.93607 8.30031C5.93607 8.85364 5.78274 9.27697 5.47607 9.57031C5.17607 9.85697 4.7694 10.0003 4.25607 10.0003H4.15607C3.64274 10.0003 3.23274 9.85697 2.92607 9.57031C2.62607 9.27697 2.47607 8.85364 2.47607 8.30031V4.7003C2.47607 4.1403 2.62607 3.71697 2.92607 3.43031C3.22607 3.14364 3.63607 3.0003 4.15607 3.0003H4.25607C4.77607 3.0003 5.18607 3.14364 5.48607 3.43031C5.78607 3.71697 5.93607 4.1403 5.93607 4.7003V8.30031ZM5.08607 4.5103C5.08607 4.30364 5.00607 4.12697 4.84607 3.9803C4.69274 3.82697 4.49607 3.75031 4.25607 3.75031H4.15607C3.91607 3.75031 3.71607 3.82697 3.55607 3.9803C3.40274 4.12697 3.32607 4.30364 3.32607 4.5103V8.49031C3.32607 8.69697 3.40274 8.87697 3.55607 9.03031C3.71607 9.17697 3.91607 9.25031 4.15607 9.25031H4.25607C4.49607 9.25031 4.69274 9.17697 4.84607 9.03031C5.00607 8.87697 5.08607 8.69697 5.08607 8.49031V4.5103ZM7.97334 10.0003V9.25031H9.18334V3.7903L7.87334 4.31031V3.5003L9.08334 3.0003H10.0333V9.25031H11.0233V10.0003H7.97334ZM13.1706 10.0003V9.25031H14.3806V3.7903L13.0706 4.31031V3.5003L14.2806 3.0003H15.2306V9.25031H16.2206V10.0003H13.1706ZM21.5279 8.30031C21.5279 8.85364 21.3745 9.27697 21.0679 9.57031C20.7679 9.85697 20.3612 10.0003 19.8479 10.0003H19.7479C19.2345 10.0003 18.8245 9.85697 18.5179 9.57031C18.2179 9.27697 18.0679 8.85364 18.0679 8.30031V4.7003C18.0679 4.1403 18.2179 3.71697 18.5179 3.43031C18.8179 3.14364 19.2279 3.0003 19.7479 3.0003H19.8479C20.3679 3.0003 20.7779 3.14364 21.0779 3.43031C21.3779 3.71697 21.5279 4.1403 21.5279 4.7003V8.30031ZM20.6779 4.5103C20.6779 4.30364 20.5979 4.12697 20.4379 3.9803C20.2845 3.82697 20.0879 3.75031 19.8479 3.75031H19.7479C19.5079 3.75031 19.3079 3.82697 19.1479 3.9803C18.9945 4.12697 18.9179 4.30364 18.9179 4.5103V8.49031C18.9179 8.69697 18.9945 8.87697 19.1479 9.03031C19.3079 9.17697 19.5079 9.25031 19.7479 9.25031H19.8479C20.0879 9.25031 20.2845 9.17697 20.4379 9.03031C20.5979 8.87697 20.6779 8.69697 20.6779 8.49031V4.5103ZM2.77607 21.0003V20.2503H3.98607V14.7903L2.67607 15.3103V14.5003L3.88607 14.0003H4.83607V20.2503H5.82607V21.0003H2.77607ZM7.97334 21.0003V20.2503H9.18334V14.7903L7.87334 15.3103V14.5003L9.08334 14.0003H10.0333V20.2503H11.0233V21.0003H7.97334ZM16.3306 19.3003C16.3306 19.8536 16.1773 20.277 15.8706 20.5703C15.5706 20.857 15.1639 21.0003 14.6506 21.0003H14.5506C14.0373 21.0003 13.6273 20.857 13.3206 20.5703C13.0206 20.277 12.8706 19.8536 12.8706 19.3003V15.7003C12.8706 15.1403 13.0206 14.717 13.3206 14.4303C13.6206 14.1436 14.0306 14.0003 14.5506 14.0003H14.6506C15.1706 14.0003 15.5806 14.1436 15.8806 14.4303C16.1806 14.717 16.3306 15.1403 16.3306 15.7003V19.3003ZM15.4806 15.5103C15.4806 15.3036 15.4006 15.127 15.2406 14.9803C15.0873 14.827 14.8906 14.7503 14.6506 14.7503H14.5506C14.3106 14.7503 14.1106 14.827 13.9506 14.9803C13.7973 15.127 13.7206 15.3036 13.7206 15.5103V19.4903C13.7206 19.697 13.7973 19.877 13.9506 20.0303C14.1106 20.177 14.3106 20.2503 14.5506 20.2503H14.6506C14.8906 20.2503 15.0873 20.177 15.2406 20.0303C15.4006 19.877 15.4806 19.697 15.4806 19.4903V15.5103ZM18.3679 21.0003V20.2503H19.5779V14.7903L18.2679 15.3103V14.5003L19.4779 14.0003H20.4279V20.2503H21.4179V21.0003H18.3679Z" fill="url(#paint0_linear_716_1469)"/>
<path d="M5.47607 9.57031L5.8215 9.9318L5.82168 9.93163L5.47607 9.57031ZM2.92607 9.57031L2.57642 9.9279L2.58463 9.93557L2.92607 9.57031ZM2.92607 3.43031L3.2715 3.7918L3.2715 3.7918L2.92607 3.43031ZM5.48607 3.43031L5.14064 3.7918L5.14064 3.7918L5.48607 3.43031ZM4.84607 3.9803L4.49252 4.33386L4.5002 4.34154L4.50821 4.34888L4.84607 3.9803ZM3.55607 3.9803L3.90168 4.34163L3.90202 4.3413L3.55607 3.9803ZM3.55607 9.03031L3.20252 9.38386L3.2102 9.39154L3.21821 9.39888L3.55607 9.03031ZM4.84607 9.03031L5.19168 9.39163L5.19202 9.3913L4.84607 9.03031ZM5.93607 8.30031H5.43607C5.43607 8.76066 5.31098 9.03632 5.13046 9.20898L5.47607 9.57031L5.82168 9.93163C6.2545 9.51763 6.43607 8.94662 6.43607 8.30031H5.93607ZM5.47607 9.57031L5.13064 9.20881C4.94456 9.38663 4.67284 9.50031 4.25607 9.50031V10.0003V10.5003C4.86597 10.5003 5.40759 10.3273 5.8215 9.9318L5.47607 9.57031ZM4.25607 10.0003V9.50031H4.15607V10.0003V10.5003H4.25607V10.0003ZM4.15607 10.0003V9.50031C3.73977 9.50031 3.46191 9.38676 3.26751 9.20504L2.92607 9.57031L2.58463 9.93557C3.00357 10.3272 3.54571 10.5003 4.15607 10.5003V10.0003ZM2.92607 9.57031L3.27563 9.2128C3.09966 9.04074 2.97607 8.76373 2.97607 8.30031H2.47607H1.97607C1.97607 8.94355 2.15249 9.5132 2.57651 9.92781L2.92607 9.57031ZM2.47607 8.30031H2.97607V4.7003H2.47607H1.97607V8.30031H2.47607ZM2.47607 4.7003H2.97607C2.97607 4.2274 3.10103 3.95469 3.2715 3.7918L2.92607 3.43031L2.58064 3.06881C2.15111 3.47925 1.97607 4.05321 1.97607 4.7003H2.47607ZM2.92607 3.43031L3.2715 3.7918C3.45641 3.61511 3.7306 3.5003 4.15607 3.5003V3.0003V2.5003C3.54154 2.5003 2.99573 2.67217 2.58064 3.06881L2.92607 3.43031ZM4.15607 3.0003V3.5003H4.25607V3.0003V2.5003H4.15607V3.0003ZM4.25607 3.0003V3.5003C4.68154 3.5003 4.95573 3.61511 5.14064 3.7918L5.48607 3.43031L5.8315 3.06881C5.41641 2.67217 4.8706 2.5003 4.25607 2.5003V3.0003ZM5.48607 3.43031L5.14064 3.7918C5.31111 3.95469 5.43607 4.2274 5.43607 4.7003H5.93607H6.43607C6.43607 4.05321 6.26103 3.47925 5.8315 3.06881L5.48607 3.43031ZM5.93607 4.7003H5.43607V8.30031H5.93607H6.43607V4.7003H5.93607ZM5.08607 4.5103H5.58607C5.58607 4.15573 5.44139 3.84773 5.18393 3.61173L4.84607 3.9803L4.50821 4.34888C4.57075 4.40621 4.58607 4.45155 4.58607 4.5103H5.08607ZM4.84607 3.9803L5.19962 3.62675C4.94209 3.36921 4.61315 3.25031 4.25607 3.25031V3.75031V4.25031C4.37899 4.25031 4.44339 4.28473 4.49252 4.33386L4.84607 3.9803ZM4.25607 3.75031V3.25031H4.15607V3.75031V4.25031H4.25607V3.75031ZM4.15607 3.75031V3.25031C3.79887 3.25031 3.47134 3.36897 3.21012 3.61931L3.55607 3.9803L3.90202 4.3413C3.9608 4.28497 4.03327 4.25031 4.15607 4.25031V3.75031ZM3.55607 3.9803L3.21046 3.61898C2.96148 3.85714 2.82607 4.16312 2.82607 4.5103H3.32607H3.82607C3.82607 4.44415 3.84399 4.39681 3.90168 4.34163L3.55607 3.9803ZM3.32607 4.5103H2.82607V8.49031H3.32607H3.82607V4.5103H3.32607ZM3.32607 8.49031H2.82607C2.82607 8.83668 2.96056 9.1419 3.20252 9.38386L3.55607 9.03031L3.90962 8.67675C3.84492 8.61205 3.82607 8.55727 3.82607 8.49031H3.32607ZM3.55607 9.03031L3.21821 9.39888C3.48046 9.63928 3.80529 9.75031 4.15607 9.75031V9.25031V8.75031C4.02685 8.75031 3.95168 8.71466 3.89393 8.66173L3.55607 9.03031ZM4.15607 9.25031V9.75031H4.25607V9.25031V8.75031H4.15607V9.25031ZM4.25607 9.25031V9.75031C4.60656 9.75031 4.93289 9.63917 5.19168 9.39163L4.84607 9.03031L4.50046 8.66898C4.45259 8.71477 4.38558 8.75031 4.25607 8.75031V9.25031ZM4.84607 9.03031L5.19202 9.3913C5.4425 9.15126 5.58607 8.84387 5.58607 8.49031H5.08607H4.58607C4.58607 8.55007 4.56964 8.60269 4.50012 8.66931L4.84607 9.03031ZM5.08607 8.49031H5.58607V4.5103H5.08607H4.58607V8.49031H5.08607ZM7.97334 10.0003H7.47334V10.5003H7.97334V10.0003ZM7.97334 9.25031V8.75031H7.47334V9.25031H7.97334ZM9.18334 9.25031V9.75031H9.68334V9.25031H9.18334ZM9.18334 3.7903H9.68334V3.05388L8.99887 3.32558L9.18334 3.7903ZM7.87334 4.31031H7.37334V5.04673L8.05781 4.77503L7.87334 4.31031ZM7.87334 3.5003L7.68239 3.0382L7.37334 3.16591V3.5003H7.87334ZM9.08334 3.0003V2.5003H8.9841L8.89239 2.5382L9.08334 3.0003ZM10.0333 3.0003H10.5333V2.5003H10.0333V3.0003ZM10.0333 9.25031H9.53334V9.75031H10.0333V9.25031ZM11.0233 9.25031H11.5233V8.75031H11.0233V9.25031ZM11.0233 10.0003V10.5003H11.5233V10.0003H11.0233ZM7.97334 10.0003H8.47334V9.25031H7.97334H7.47334V10.0003H7.97334ZM7.97334 9.25031V9.75031H9.18334V9.25031V8.75031H7.97334V9.25031ZM9.18334 9.25031H9.68334V3.7903H9.18334H8.68334V9.25031H9.18334ZM9.18334 3.7903L8.99887 3.32558L7.68887 3.84558L7.87334 4.31031L8.05781 4.77503L9.36781 4.25503L9.18334 3.7903ZM7.87334 4.31031H8.37334V3.5003H7.87334H7.37334V4.31031H7.87334ZM7.87334 3.5003L8.06429 3.96241L9.27429 3.46241L9.08334 3.0003L8.89239 2.5382L7.68239 3.0382L7.87334 3.5003ZM9.08334 3.0003V3.5003H10.0333V3.0003V2.5003H9.08334V3.0003ZM10.0333 3.0003H9.53334V9.25031H10.0333H10.5333V3.0003H10.0333ZM10.0333 9.25031V9.75031H11.0233V9.25031V8.75031H10.0333V9.25031ZM11.0233 9.25031H10.5233V10.0003H11.0233H11.5233V9.25031H11.0233ZM11.0233 10.0003V9.50031H7.97334V10.0003V10.5003H11.0233V10.0003ZM13.1706 10.0003H12.6706V10.5003H13.1706V10.0003ZM13.1706 9.25031V8.75031H12.6706V9.25031H13.1706ZM14.3806 9.25031V9.75031H14.8806V9.25031H14.3806ZM14.3806 3.7903H14.8806V3.05388L14.1961 3.32558L14.3806 3.7903ZM13.0706 4.31031H12.5706V5.04673L13.2551 4.77503L13.0706 4.31031ZM13.0706 3.5003L12.8797 3.0382L12.5706 3.16591V3.5003H13.0706ZM14.2806 3.0003V2.5003H14.1814L14.0897 2.5382L14.2806 3.0003ZM15.2306 3.0003H15.7306V2.5003H15.2306V3.0003ZM15.2306 9.25031H14.7306V9.75031H15.2306V9.25031ZM16.2206 9.25031H16.7206V8.75031H16.2206V9.25031ZM16.2206 10.0003V10.5003H16.7206V10.0003H16.2206ZM13.1706 10.0003H13.6706V9.25031H13.1706H12.6706V10.0003H13.1706ZM13.1706 9.25031V9.75031H14.3806V9.25031V8.75031H13.1706V9.25031ZM14.3806 9.25031H14.8806V3.7903H14.3806H13.8806V9.25031H14.3806ZM14.3806 3.7903L14.1961 3.32558L12.8861 3.84558L13.0706 4.31031L13.2551 4.77503L14.5651 4.25503L14.3806 3.7903ZM13.0706 4.31031H13.5706V3.5003H13.0706H12.5706V4.31031H13.0706ZM13.0706 3.5003L13.2616 3.96241L14.4716 3.46241L14.2806 3.0003L14.0897 2.5382L12.8797 3.0382L13.0706 3.5003ZM14.2806 3.0003V3.5003H15.2306V3.0003V2.5003H14.2806V3.0003ZM15.2306 3.0003H14.7306V9.25031H15.2306H15.7306V3.0003H15.2306ZM15.2306 9.25031V9.75031H16.2206V9.25031V8.75031H15.2306V9.25031ZM16.2206 9.25031H15.7206V10.0003H16.2206H16.7206V9.25031H16.2206ZM16.2206 10.0003V9.50031H13.1706V10.0003V10.5003H16.2206V10.0003ZM21.0679 9.57031L21.4133 9.9318L21.4135 9.93163L21.0679 9.57031ZM18.5179 9.57031L18.1682 9.9279L18.1764 9.93557L18.5179 9.57031ZM18.5179 3.43031L18.8633 3.7918L18.8633 3.7918L18.5179 3.43031ZM21.0779 3.43031L20.7324 3.7918L20.7324 3.7918L21.0779 3.43031ZM20.4379 3.9803L20.0843 4.33386L20.092 4.34154L20.1 4.34888L20.4379 3.9803ZM19.1479 3.9803L19.4935 4.34163L19.4938 4.3413L19.1479 3.9803ZM19.1479 9.03031L18.7943 9.38386L18.802 9.39154L18.81 9.39888L19.1479 9.03031ZM20.4379 9.03031L20.7835 9.39163L20.7838 9.3913L20.4379 9.03031ZM21.5279 8.30031H21.0279C21.0279 8.76066 20.9028 9.03632 20.7223 9.20898L21.0679 9.57031L21.4135 9.93163C21.8463 9.51763 22.0279 8.94662 22.0279 8.30031H21.5279ZM21.0679 9.57031L20.7224 9.20881C20.5364 9.38663 20.2646 9.50031 19.8479 9.50031V10.0003V10.5003C20.4578 10.5003 20.9994 10.3273 21.4133 9.9318L21.0679 9.57031ZM19.8479 10.0003V9.50031H19.7479V10.0003V10.5003H19.8479V10.0003ZM19.7479 10.0003V9.50031C19.3316 9.50031 19.0537 9.38676 18.8593 9.20504L18.5179 9.57031L18.1764 9.93557C18.5954 10.3272 19.1375 10.5003 19.7479 10.5003V10.0003ZM18.5179 9.57031L18.8674 9.2128C18.6915 9.04074 18.5679 8.76373 18.5679 8.30031H18.0679H17.5679C17.5679 8.94355 17.7443 9.5132 18.1683 9.92781L18.5179 9.57031ZM18.0679 8.30031H18.5679V4.7003H18.0679H17.5679V8.30031H18.0679ZM18.0679 4.7003H18.5679C18.5679 4.2274 18.6928 3.95469 18.8633 3.7918L18.5179 3.43031L18.1724 3.06881C17.7429 3.47925 17.5679 4.05321 17.5679 4.7003H18.0679ZM18.5179 3.43031L18.8633 3.7918C19.0482 3.61511 19.3224 3.5003 19.7479 3.5003V3.0003V2.5003C19.1333 2.5003 18.5875 2.67217 18.1724 3.06881L18.5179 3.43031ZM19.7479 3.0003V3.5003H19.8479V3.0003V2.5003H19.7479V3.0003ZM19.8479 3.0003V3.5003C20.2733 3.5003 20.5475 3.61511 20.7324 3.7918L21.0779 3.43031L21.4233 3.06881C21.0082 2.67217 20.4624 2.5003 19.8479 2.5003V3.0003ZM21.0779 3.43031L20.7324 3.7918C20.9029 3.95469 21.0279 4.2274 21.0279 4.7003H21.5279H22.0279C22.0279 4.05321 21.8528 3.47925 21.4233 3.06881L21.0779 3.43031ZM21.5279 4.7003H21.0279V8.30031H21.5279H22.0279V4.7003H21.5279ZM20.6779 4.5103H21.1779C21.1779 4.15573 21.0332 3.84773 20.7757 3.61173L20.4379 3.9803L20.1 4.34888C20.1626 4.40621 20.1779 4.45155 20.1779 4.5103H20.6779ZM20.4379 3.9803L20.7914 3.62675C20.5339 3.36921 20.2049 3.25031 19.8479 3.25031V3.75031V4.25031C19.9708 4.25031 20.0352 4.28473 20.0843 4.33386L20.4379 3.9803ZM19.8479 3.75031V3.25031H19.7479V3.75031V4.25031H19.8479V3.75031ZM19.7479 3.75031V3.25031C19.3907 3.25031 19.0631 3.36897 18.8019 3.61931L19.1479 3.9803L19.4938 4.3413C19.5526 4.28497 19.6251 4.25031 19.7479 4.25031V3.75031ZM19.1479 3.9803L18.8023 3.61898C18.5533 3.85714 18.4179 4.16312 18.4179 4.5103H18.9179H19.4179C19.4179 4.44415 19.4358 4.39681 19.4935 4.34163L19.1479 3.9803ZM18.9179 4.5103H18.4179V8.49031H18.9179H19.4179V4.5103H18.9179ZM18.9179 8.49031H18.4179C18.4179 8.83668 18.5524 9.1419 18.7943 9.38386L19.1479 9.03031L19.5014 8.67675C19.4367 8.61205 19.4179 8.55727 19.4179 8.49031H18.9179ZM19.1479 9.03031L18.81 9.39888C19.0723 9.63928 19.3971 9.75031 19.7479 9.75031V9.25031V8.75031C19.6186 8.75031 19.5435 8.71466 19.4857 8.66173L19.1479 9.03031ZM19.7479 9.25031V9.75031H19.8479V9.25031V8.75031H19.7479V9.25031ZM19.8479 9.25031V9.75031C20.1984 9.75031 20.5247 9.63917 20.7835 9.39163L20.4379 9.03031L20.0923 8.66898C20.0444 8.71477 19.9774 8.75031 19.8479 8.75031V9.25031ZM20.4379 9.03031L20.7838 9.3913C21.0343 9.15126 21.1779 8.84387 21.1779 8.49031H20.6779H20.1779C20.1779 8.55007 20.1614 8.60269 20.0919 8.66931L20.4379 9.03031ZM20.6779 8.49031H21.1779V4.5103H20.6779H20.1779V8.49031H20.6779ZM2.77607 21.0003H2.27607V21.5003H2.77607V21.0003ZM2.77607 20.2503V19.7503H2.27607V20.2503H2.77607ZM3.98607 20.2503V20.7503H4.48607V20.2503H3.98607ZM3.98607 14.7903H4.48607V14.0539L3.8016 14.3256L3.98607 14.7903ZM2.67607 15.3103H2.17607V16.0467L2.86054 15.775L2.67607 15.3103ZM2.67607 14.5003L2.48512 14.0382L2.17607 14.1659V14.5003H2.67607ZM3.88607 14.0003V13.5003H3.78684L3.69512 13.5382L3.88607 14.0003ZM4.83607 14.0003H5.33607V13.5003H4.83607V14.0003ZM4.83607 20.2503H4.33607V20.7503H4.83607V20.2503ZM5.82607 20.2503H6.32607V19.7503H5.82607V20.2503ZM5.82607 21.0003V21.5003H6.32607V21.0003H5.82607ZM2.77607 21.0003H3.27607V20.2503H2.77607H2.27607V21.0003H2.77607ZM2.77607 20.2503V20.7503H3.98607V20.2503V19.7503H2.77607V20.2503ZM3.98607 20.2503H4.48607V14.7903H3.98607H3.48607V20.2503H3.98607ZM3.98607 14.7903L3.8016 14.3256L2.4916 14.8456L2.67607 15.3103L2.86054 15.775L4.17054 15.255L3.98607 14.7903ZM2.67607 15.3103H3.17607V14.5003H2.67607H2.17607V15.3103H2.67607ZM2.67607 14.5003L2.86702 14.9624L4.07702 14.4624L3.88607 14.0003L3.69512 13.5382L2.48512 14.0382L2.67607 14.5003ZM3.88607 14.0003V14.5003H4.83607V14.0003V13.5003H3.88607V14.0003ZM4.83607 14.0003H4.33607V20.2503H4.83607H5.33607V14.0003H4.83607ZM4.83607 20.2503V20.7503H5.82607V20.2503V19.7503H4.83607V20.2503ZM5.82607 20.2503H5.32607V21.0003H5.82607H6.32607V20.2503H5.82607ZM5.82607 21.0003V20.5003H2.77607V21.0003V21.5003H5.82607V21.0003ZM7.97334 21.0003H7.47334V21.5003H7.97334V21.0003ZM7.97334 20.2503V19.7503H7.47334V20.2503H7.97334ZM9.18334 20.2503V20.7503H9.68334V20.2503H9.18334ZM9.18334 14.7903H9.68334V14.0539L8.99887 14.3256L9.18334 14.7903ZM7.87334 15.3103H7.37334V16.0467L8.05781 15.775L7.87334 15.3103ZM7.87334 14.5003L7.68239 14.0382L7.37334 14.1659V14.5003H7.87334ZM9.08334 14.0003V13.5003H8.9841L8.89239 13.5382L9.08334 14.0003ZM10.0333 14.0003H10.5333V13.5003H10.0333V14.0003ZM10.0333 20.2503H9.53334V20.7503H10.0333V20.2503ZM11.0233 20.2503H11.5233V19.7503H11.0233V20.2503ZM11.0233 21.0003V21.5003H11.5233V21.0003H11.0233ZM7.97334 21.0003H8.47334V20.2503H7.97334H7.47334V21.0003H7.97334ZM7.97334 20.2503V20.7503H9.18334V20.2503V19.7503H7.97334V20.2503ZM9.18334 20.2503H9.68334V14.7903H9.18334H8.68334V20.2503H9.18334ZM9.18334 14.7903L8.99887 14.3256L7.68887 14.8456L7.87334 15.3103L8.05781 15.775L9.36781 15.255L9.18334 14.7903ZM7.87334 15.3103H8.37334V14.5003H7.87334H7.37334V15.3103H7.87334ZM7.87334 14.5003L8.06429 14.9624L9.27429 14.4624L9.08334 14.0003L8.89239 13.5382L7.68239 14.0382L7.87334 14.5003ZM9.08334 14.0003V14.5003H10.0333V14.0003V13.5003H9.08334V14.0003ZM10.0333 14.0003H9.53334V20.2503H10.0333H10.5333V14.0003H10.0333ZM10.0333 20.2503V20.7503H11.0233V20.2503V19.7503H10.0333V20.2503ZM11.0233 20.2503H10.5233V21.0003H11.0233H11.5233V20.2503H11.0233ZM11.0233 21.0003V20.5003H7.97334V21.0003V21.5003H11.0233V21.0003ZM15.8706 20.5703L16.216 20.9318L16.2162 20.9316L15.8706 20.5703ZM13.3206 20.5703L12.971 20.9279L12.9792 20.9356L13.3206 20.5703ZM13.3206 14.4303L13.666 14.7918L13.666 14.7918L13.3206 14.4303ZM15.8806 14.4303L15.5352 14.7918L15.5352 14.7918L15.8806 14.4303ZM15.2406 14.9803L14.8871 15.3339L14.8947 15.3415L14.9027 15.3489L15.2406 14.9803ZM13.9506 14.9803L14.2962 15.3416L14.2966 15.3413L13.9506 14.9803ZM13.9506 20.0303L13.597 20.3839L13.6047 20.3915L13.6127 20.3989L13.9506 20.0303ZM15.2406 20.0303L15.5862 20.3916L15.5866 20.3913L15.2406 20.0303ZM16.3306 19.3003H15.8306C15.8306 19.7607 15.7055 20.0363 15.525 20.209L15.8706 20.5703L16.2162 20.9316C16.649 20.5176 16.8306 19.9466 16.8306 19.3003H16.3306ZM15.8706 20.5703L15.5252 20.2088C15.3391 20.3866 15.0674 20.5003 14.6506 20.5003V21.0003V21.5003C15.2605 21.5003 15.8021 21.3273 16.216 20.9318L15.8706 20.5703ZM14.6506 21.0003V20.5003H14.5506V21.0003V21.5003H14.6506V21.0003ZM14.5506 21.0003V20.5003C14.1343 20.5003 13.8564 20.3868 13.662 20.205L13.3206 20.5703L12.9792 20.9356C13.3981 21.3272 13.9402 21.5003 14.5506 21.5003V21.0003ZM13.3206 20.5703L13.6702 20.2128C13.4942 20.0407 13.3706 19.7637 13.3706 19.3003H12.8706H12.3706C12.3706 19.9436 12.547 20.5132 12.971 20.9278L13.3206 20.5703ZM12.8706 19.3003H13.3706V15.7003H12.8706H12.3706V19.3003H12.8706ZM12.8706 15.7003H13.3706C13.3706 15.2274 13.4956 14.9547 13.666 14.7918L13.3206 14.4303L12.9752 14.0688C12.5456 14.4793 12.3706 15.0532 12.3706 15.7003H12.8706ZM13.3206 14.4303L13.666 14.7918C13.8509 14.6151 14.1251 14.5003 14.5506 14.5003V14.0003V13.5003C13.9361 13.5003 13.3903 13.6722 12.9752 14.0688L13.3206 14.4303ZM14.5506 14.0003V14.5003H14.6506V14.0003V13.5003H14.5506V14.0003ZM14.6506 14.0003V14.5003C15.0761 14.5003 15.3503 14.6151 15.5352 14.7918L15.8806 14.4303L16.226 14.0688C15.8109 13.6722 15.2651 13.5003 14.6506 13.5003V14.0003ZM15.8806 14.4303L15.5352 14.7918C15.7056 14.9547 15.8306 15.2274 15.8306 15.7003H16.3306H16.8306C16.8306 15.0532 16.6556 14.4793 16.226 14.0688L15.8806 14.4303ZM16.3306 15.7003H15.8306V19.3003H16.3306H16.8306V15.7003H16.3306ZM15.4806 15.5103H15.9806C15.9806 15.1557 15.8359 14.8477 15.5785 14.6117L15.2406 14.9803L14.9027 15.3489C14.9653 15.4062 14.9806 15.4515 14.9806 15.5103H15.4806ZM15.2406 14.9803L15.5942 14.6268C15.3366 14.3692 15.0077 14.2503 14.6506 14.2503V14.7503V15.2503C14.7735 15.2503 14.8379 15.2847 14.8871 15.3339L15.2406 14.9803ZM14.6506 14.7503V14.2503H14.5506V14.7503V15.2503H14.6506V14.7503ZM14.5506 14.7503V14.2503C14.1934 14.2503 13.8659 14.369 13.6047 14.6193L13.9506 14.9803L14.2966 15.3413C14.3553 15.285 14.4278 15.2503 14.5506 15.2503V14.7503ZM13.9506 14.9803L13.605 14.619C13.356 14.8571 13.2206 15.1631 13.2206 15.5103H13.7206H14.2206C14.2206 15.4442 14.2385 15.3968 14.2962 15.3416L13.9506 14.9803ZM13.7206 15.5103H13.2206V19.4903H13.7206H14.2206V15.5103H13.7206ZM13.7206 19.4903H13.2206C13.2206 19.8367 13.3551 20.1419 13.597 20.3839L13.9506 20.0303L14.3042 19.6768C14.2395 19.612 14.2206 19.5573 14.2206 19.4903H13.7206ZM13.9506 20.0303L13.6127 20.3989C13.875 20.6393 14.1998 20.7503 14.5506 20.7503V20.2503V19.7503C14.4214 19.7503 14.3462 19.7147 14.2885 19.6617L13.9506 20.0303ZM14.5506 20.2503V20.7503H14.6506V20.2503V19.7503H14.5506V20.2503ZM14.6506 20.2503V20.7503C15.0011 20.7503 15.3274 20.6392 15.5862 20.3916L15.2406 20.0303L14.895 19.669C14.8471 19.7148 14.7801 19.7503 14.6506 19.7503V20.2503ZM15.2406 20.0303L15.5866 20.3913C15.837 20.1513 15.9806 19.8439 15.9806 19.4903H15.4806H14.9806C14.9806 19.5501 14.9642 19.6027 14.8947 19.6693L15.2406 20.0303ZM15.4806 19.4903H15.9806V15.5103H15.4806H14.9806V19.4903H15.4806ZM18.3679 21.0003H17.8679V21.5003H18.3679V21.0003ZM18.3679 20.2503V19.7503H17.8679V20.2503H18.3679ZM19.5779 20.2503V20.7503H20.0779V20.2503H19.5779ZM19.5779 14.7903H20.0779V14.0539L19.3934 14.3256L19.5779 14.7903ZM18.2679 15.3103H17.7679V16.0467L18.4523 15.775L18.2679 15.3103ZM18.2679 14.5003L18.0769 14.0382L17.7679 14.1659V14.5003H18.2679ZM19.4779 14.0003V13.5003H19.3786L19.2869 13.5382L19.4779 14.0003ZM20.4279 14.0003H20.9279V13.5003H20.4279V14.0003ZM20.4279 20.2503H19.9279V20.7503H20.4279V20.2503ZM21.4179 20.2503H21.9179V19.7503H21.4179V20.2503ZM21.4179 21.0003V21.5003H21.9179V21.0003H21.4179ZM18.3679 21.0003H18.8679V20.2503H18.3679H17.8679V21.0003H18.3679ZM18.3679 20.2503V20.7503H19.5779V20.2503V19.7503H18.3679V20.2503ZM19.5779 20.2503H20.0779V14.7903H19.5779H19.0779V20.2503H19.5779ZM19.5779 14.7903L19.3934 14.3256L18.0834 14.8456L18.2679 15.3103L18.4523 15.775L19.7623 15.255L19.5779 14.7903ZM18.2679 15.3103H18.7679V14.5003H18.2679H17.7679V15.3103H18.2679ZM18.2679 14.5003L18.4588 14.9624L19.6688 14.4624L19.4779 14.0003L19.2869 13.5382L18.0769 14.0382L18.2679 14.5003ZM19.4779 14.0003V14.5003H20.4279V14.0003V13.5003H19.4779V14.0003ZM20.4279 14.0003H19.9279V20.2503H20.4279H20.9279V14.0003H20.4279ZM20.4279 20.2503V20.7503H21.4179V20.2503V19.7503H20.4279V20.2503ZM21.4179 20.2503H20.9179V21.0003H21.4179H21.9179V20.2503H21.4179ZM21.4179 21.0003V20.5003H18.3679V21.0003V21.5003H21.4179V21.0003Z" fill="url(#paint1_linear_716_1469)"/>
</g>
<defs>
<linearGradient id="paint0_linear_716_1469" x1="24.0006" y1="0.000305891" x2="0.000601884" y2="22.5003" gradientUnits="userSpaceOnUse">
<stop stop-color="#F0B375"/>
<stop offset="1" stop-color="#B81414"/>
</linearGradient>
<linearGradient id="paint1_linear_716_1469" x1="24.0006" y1="0.000305176" x2="0.000602722" y2="24.0003" gradientUnits="userSpaceOnUse">
<stop stop-color="#F0B275"/>
<stop offset="1" stop-color="#B81414"/>
</linearGradient>
<clipPath id="clip0_716_1469">
<rect width="23.9997" height="23.9997" fill="white"/>
</clipPath>
</defs>
</svg>
